<?xml version="1.0" encoding="UTF-8" standalone="no"?>
<!-- Created with Inkscape (http://www.inkscape.org/) -->

<svg
   width="108"
   height="108"
   viewBox="0 0 28.575 28.575001"
   version="1.1"
   id="svg6743"
   inkscape:version="1.2.2 (b0a8486541, 2022-12-01)"
   sodipodi:docname="appicon-round.svg"
   xmlns:inkscape="http://www.inkscape.org/namespaces/inkscape"
   xmlns:sodipodi="http://sodipodi.sourceforge.net/DTD/sodipodi-0.dtd"
   xmlns="http://www.w3.org/2000/svg"
   xmlns:svg="http://www.w3.org/2000/svg">
  <sodipodi:namedview
     id="namedview6745"
     pagecolor="#ffffff"
     bordercolor="#666666"
     borderopacity="1.0"
     inkscape:showpageshadow="2"
     inkscape:pageopacity="0.0"
     inkscape:pagecheckerboard="0"
     inkscape:deskcolor="#d1d1d1"
     inkscape:document-units="px"
     showgrid="false"
     inkscape:zoom="5.6417361"
     inkscape:cx="33.677577"
     inkscape:cy="47.414483"
     inkscape:window-width="1920"
     inkscape:window-height="1022"
     inkscape:window-x="0"
     inkscape:window-y="0"
     inkscape:window-maximized="1"
     inkscape:current-layer="layer2" />
  <defs
     id="defs6740" />
  <g
     inkscape:groupmode="layer"
     id="layer2"
     inkscape:label="background_circle"
     style="display:inline"
     transform="translate(-93.066024,-136.56602)">
    <rect
       style="fill:#33225d;fill-opacity:1;stroke:none;stroke-width:0.711051;stroke-linecap:round;stroke-linejoin:round;stroke-dasharray:none;stroke-opacity:1"
       id="rect2802"
       width="28.575001"
       height="28.575001"
       x="93.066025"
       y="136.56602" />
  </g>
  <g
     inkscape:label="forground"
     inkscape:groupmode="layer"
     id="layer1"
     transform="matrix(0.9005837,0,0,0.9005837,-109.99478,-201.19112)">
    <g
       id="g10660"
       transform="matrix(0.85773613,0,0,0.83174198,-812.69698,-296.44705)">
      <g
         id="g19219"
         transform="translate(-0.44331564,0.41029467)">
        <g
           aria-label="7"
           transform="scale(1.0027601,0.99724749)"
           id="text3650"
           style="font-size:5.68698px;line-height:1.25;font-family:'Sans Serif Collection';-inkscape-font-specification:'Sans Serif Collection';display:inline;fill:#aaa3bc;fill-opacity:0.793814;stroke-width:0.15233">
          <path
             d="m 1111.4761,641.98362 1.6663,-3.60555 h -2.1895 v -0.45496 h 2.7241 v 0.38672 l -1.6492,3.67379 z"
             id="path19245" />
        </g>
        <g
           aria-label="9"
           transform="scale(1.0027601,0.99724749)"
           id="text3654"
           style="font-size:5.68698px;line-height:1.25;font-family:'Sans Serif Collection';-inkscape-font-specification:'Sans Serif Collection';fill:#aaa3bc;fill-opacity:0.701031;stroke-width:0.15233">
          <path
             d="m 1099.8833,640.8116 q 0,0.4379 -0.08,0.86442 -0.074,0.42084 -0.2786,0.76774 -0.1991,0.34122 -0.5687,0.54595 -0.364,0.20473 -0.9384,0.20473 -0.1137,0 -0.2673,-0.0171 -0.1478,-0.0114 -0.2445,-0.0398 v -0.42652 q 0.2218,0.0739 0.5005,0.0739 0.398,0 0.654,-0.1308 0.2616,-0.1308 0.4151,-0.35259 0.1536,-0.22748 0.2218,-0.5232 0.068,-0.30141 0.08,-0.63126 h -0.034 q -0.1251,0.19336 -0.364,0.33553 -0.2331,0.13649 -0.6028,0.13649 -0.5232,0 -0.8474,-0.31847 -0.3184,-0.32416 -0.3184,-0.90992 0,-0.42652 0.1592,-0.73362 0.1649,-0.3071 0.455,-0.47202 0.29,-0.16492 0.6824,-0.16492 0.3867,0 0.6995,0.19904 0.3128,0.19336 0.4948,0.59145 0.182,0.3924 0.182,1.00091 z m -1.3763,-1.37056 q -0.3526,0 -0.5801,0.23316 -0.2218,0.23317 -0.2218,0.71088 0,0.3924 0.1877,0.61988 0.1934,0.22179 0.5915,0.22179 0.2729,0 0.472,-0.10805 0.199,-0.11374 0.3071,-0.28435 0.1137,-0.17061 0.1137,-0.3526 0,-0.24454 -0.097,-0.48339 -0.097,-0.23885 -0.29,-0.39809 -0.1934,-0.15923 -0.4834,-0.15923 z"
             id="path19248" />
        </g>
        <g
           aria-label="5"
           transform="matrix(1.0027601,0,0,0.99724749,0.58475934,0.33254806)"
           id="text3654-1"
           style="font-size:5.68698px;line-height:1.25;font-family:'Sans Serif Collection';-inkscape-font-specification:'Sans Serif Collection';fill:#aaa3bc;fill-opacity:0.701031;stroke-width:0.15233">
          <path
             d="m 1106.477,651.86659 q 0.6256,0 0.9952,0.31278 0.3697,0.31278 0.3697,0.88148 0,0.63126 -0.4038,0.99522 -0.3981,0.35828 -1.1146,0.35828 -0.3128,0 -0.5915,-0.0569 -0.273,-0.0569 -0.4606,-0.16492 v -0.47202 q 0.2047,0.12511 0.4947,0.19905 0.2958,0.0682 0.563,0.0682 0.4493,0 0.7223,-0.21042 0.2787,-0.2161 0.2787,-0.66538 0,-0.39808 -0.2446,-0.6085 -0.2445,-0.21611 -0.7734,-0.21611 -0.1593,0 -0.364,0.0284 -0.2047,0.0284 -0.3298,0.0569 l -0.2503,-0.15924 0.1536,-1.91651 h 2.0359 v 0.45496 h -1.6094 l -0.097,1.1772 q 0.097,-0.0171 0.2616,-0.0398 0.165,-0.0227 0.364,-0.0227 z"
             id="path19251" />
        </g>
        <g
           id="g19200"
           transform="matrix(0.98459331,0.18032485,-0.16956078,0.98459331,126.9711,-190.66368)">
          <path
             d="m 1109.2947,634.43495 -2e-4,8.6e-4 c 0.2631,0.0438 0.5345,0.14895 0.5623,0.26106 0.1141,0.46465 0.2179,2.05294 0.039,2.93077 -0.1792,0.8778 -1.3266,3.1178 -1.4336,3.65586 -0.07,0.39746 -1.2873,5.75414 -1.2873,5.75414 0.2591,0.19922 0.2085,0.68487 -0.379,0.58071 -0.4838,-0.0758 -0.495,-0.49035 -0.1355,-0.68264 0.083,-0.32044 0.9949,-5.43607 1.0303,-5.83902 0,-0.15888 4e-4,-0.5193 -0.015,-0.94314 10e-5,-8.6e-4 0,-0.002 0,-0.002 -0.016,-0.45972 -0.041,-1.01222 -0.054,-1.53572 -0.011,-0.40733 -0.011,-0.79584 0.011,-1.10817 0.012,-0.0695 -1e-4,-0.13852 0.011,-0.20063 0,-0.0138 0.011,-0.0322 0.011,-0.0469 0,-0.0161 0.011,-0.035 0.011,-0.0529 0.011,-0.0361 0.012,-0.0707 0.018,-0.10279 0.011,-0.0357 0.013,-0.0757 0.021,-0.1187 0,-0.002 0,-0.014 0,-0.025 0.011,-0.0445 0.016,-0.0915 0.049,-0.13845 2e-4,-8.5e-4 0,-0.002 0,-0.002 0.011,-0.0496 0.042,-0.099 0.052,-0.15399 0,-0.0108 0.011,-0.0269 0.011,-0.0371 0.011,-0.0553 0.043,-0.10722 0.059,-0.16519 0,-0.0209 0.011,-0.0396 0.011,-0.0596 0.036,-0.0655 0.053,-0.13548 0.079,-0.20606 0,-0.0138 0.011,-0.0296 0.011,-0.0443 0.038,-0.0761 0.063,-0.15414 0.096,-0.23268 0,-0.0108 0,-0.0236 0.011,-0.0322 0.077,-0.18199 0.1556,-0.36384 0.2354,-0.53441 0,-0.0108 0,-0.0161 0.011,-0.0275 0.039,-0.083 0.078,-0.16335 0.1162,-0.23903 0.153,-0.30807 0.2874,-0.5446 0.3601,-0.61241 0.077,-0.0716 0.2779,-0.0777 0.4825,-0.0448 z"
             style="font-size:19.7556px;line-height:1.25;font-family:ObelixPro;-inkscape-font-specification:ObelixPro;display:inline;fill:#aaa3bc;fill-opacity:1;stroke:#ffffff;stroke-width:0.37077;stroke-opacity:1"
             id="path2706"
             sodipodi:nodetypes="ccccccccsccsccccscccccccccccccccccc" />
          <path
             d="m 1116.6212,649.39075 -7e-4,-5.3e-4 c -0.1681,0.20704 -0.3936,0.39096 -0.5049,0.35975 -0.4603,-0.13048 -1.8923,-0.82496 -2.567,-1.41438 -0.6747,-0.58958 -2.0554,-2.69381 -2.4702,-3.05272 -0.3109,-0.25739 -4.3666,-3.96223 -4.3666,-3.96223 -0.3013,0.12674 -0.6985,-0.15721 -0.3176,-0.61649 0.3048,-0.38335 0.6708,-0.18801 0.6604,0.21942 0.2374,0.23096 4.2346,3.551 4.5675,3.78089 0.1363,0.0816 0.4513,0.25684 0.8275,0.45262 6e-4,5.5e-4 2e-4,0.002 2e-4,0.002 0.4078,0.21298 0.9005,0.46421 1.3618,0.71196 0.3591,0.19262 0.6971,0.38423 0.9591,0.55534 0.055,0.045 0.1206,0.0685 0.169,0.10864 0.013,0.009 0.025,0.0208 0.037,0.0305 0.014,0.01 0.027,0.023 0.041,0.034 0.028,0.0235 0.055,0.0458 0.081,0.0667 0.027,0.023 0.058,0.0491 0.092,0.0771 -5e-4,0.003 0.013,0.009 0.021,0.0162 0.036,0.029 0.07,0.0594 0.096,0.11078 6e-4,5.3e-4 2e-4,0.002 2e-4,0.002 0.039,0.032 0.066,0.0852 0.1085,0.12089 0.012,0.004 0.021,0.0174 0.029,0.0238 0.043,0.0359 0.071,0.0907 0.1143,0.1328 0.017,0.0133 0.03,0.0257 0.046,0.0388 0.04,0.0631 0.091,0.1137 0.1401,0.17054 0.013,0.009 0.023,0.0195 0.035,0.0286 0.048,0.0707 0.1027,0.13079 0.1546,0.19858 0.012,0.004 0.018,0.0152 0.025,0.0208 0.1196,0.15742 0.2394,0.31514 0.3484,0.46864 0.012,0.004 0.014,0.01 0.022,0.0177 0.052,0.0751 0.1038,0.14871 0.1502,0.21921 0.1925,0.28523 0.3316,0.51896 0.3544,0.61585 0.022,0.1029 -0.07,0.27997 -0.1996,0.4416 z"
             style="font-size:19.7556px;line-height:1.25;font-family:ObelixPro;-inkscape-font-specification:ObelixPro;display:inline;fill:#aaa3bc;fill-opacity:1;stroke:#ffffff;stroke-width:0.37077;stroke-opacity:1"
             id="path5159"
             sodipodi:nodetypes="ccccccccsccsccccscccccccccccccccccc" />
          <path
             d="m 1099.2706,648.53548 -2e-4,-5e-5 c -0.095,-0.24887 -0.139,-0.53695 -0.056,-0.61728 0.345,-0.33148 1.6677,-1.21697 2.5172,-1.50174 0.8495,-0.28464 3.3628,-0.41375 3.8822,-0.59065 0.3792,-0.13821 5.625,-1.7685 5.625,-1.7685 0.043,-0.32397 0.4882,-0.52348 0.6923,0.0372 0.1755,0.45719 -0.1763,0.67395 -0.5228,0.4592 -0.3192,0.0882 -5.2033,1.86207 -5.5697,2.03328 -0.1393,0.0763 -0.4496,0.25994 -0.8086,0.48574 -9e-4,3.3e-4 -3e-4,-8e-4 -3e-4,-8e-4 -0.3897,0.24457 -0.8553,0.54283 -1.3022,0.81593 -0.3475,0.21266 -0.6837,0.40771 -0.9636,0.5475 -0.066,0.0244 -0.1202,0.0691 -0.1791,0.0909 -0.013,0.004 -0.03,0.0109 -0.045,0.0168 -0.015,0.005 -0.034,0.0122 -0.05,0.0181 -0.036,0.0124 -0.068,0.0251 -0.098,0.0359 -0.035,0.012 -0.072,0.0263 -0.1133,0.0408 0,-0.002 -0.013,0.004 -0.024,0.009 -0.043,0.0156 -0.088,0.0318 -0.1442,0.0268 -8e-4,2.5e-4 -4e-4,-7.9e-4 -4e-4,-7.9e-4 -0.048,0.0172 -0.107,0.0133 -0.159,0.0325 -0.011,0.005 -0.026,0.01 -0.036,0.013 -0.052,0.019 -0.1144,0.0161 -0.1723,0.032 -0.02,0.008 -0.039,0.0138 -0.057,0.0202 -0.075,0.002 -0.144,0.0214 -0.218,0.0349 -0.013,0.004 -0.028,0.01 -0.042,0.0155 -0.085,0.006 -0.1647,0.0225 -0.2495,0.0336 -0.011,0.005 -0.023,0.009 -0.031,0.0109 -0.1962,0.0242 -0.3927,0.0476 -0.5803,0.0641 -0.011,0.005 -0.014,0.005 -0.027,0.01 -0.091,0.008 -0.1807,0.0142 -0.265,0.0191 -0.3434,0.0218 -0.6154,0.0242 -0.7106,-0.005 -0.099,-0.0343 -0.2061,-0.20182 -0.2799,-0.39546 z"
             style="font-size:19.7556px;line-height:1.25;font-family:ObelixPro;-inkscape-font-specification:ObelixPro;display:inline;fill:#aaa3bc;fill-opacity:1;stroke:#ffffff;stroke-width:0.37077;stroke-opacity:1"
             id="path5161"
             sodipodi:nodetypes="ccccccccsccsccccscccccccccccccccccc" />
          <path
             d="m 1108.1073,642.84452 c -0.043,0.2278 -0.095,0.48775 -0.161,0.78012 -0.3583,1.5961 -0.7715,3.413 -0.7715,3.413 0.2591,0.19922 0.2085,0.68487 -0.379,0.58071 -0.4838,-0.0758 -0.495,-0.49035 -0.1355,-0.68264 0.048,-0.18429 0.3699,-1.95465 0.6414,-3.50243 0.064,-0.36322 0.1248,-0.71418 0.1787,-1.02951"
             style="font-size:19.7556px;line-height:1.25;font-family:ObelixPro;-inkscape-font-specification:ObelixPro;display:inline;fill:#aaa3bc;fill-opacity:1;stroke:#ffffff;stroke-width:0.37077;stroke-opacity:1"
             id="path9118"
             sodipodi:nodetypes="cscccsc" />
        </g>
        <g
           aria-label="7"
           transform="scale(1.0027601,0.99724749)"
           id="text19186"
           style="font-size:3.93042px;line-height:1.25;font-family:'Sans Serif Collection';-inkscape-font-specification:'Sans Serif Collection';fill:#aaa3bc;fill-opacity:0.430044;stroke-width:0.105279">
          <path
             d="m 1102.1471,641.96313 1.1516,-2.49188 h -1.5132 v -0.31444 h 1.8827 v 0.26727 l -1.1399,2.53905 z"
             id="path19254" />
        </g>
        <g
           aria-label="5"
           transform="scale(1.0027601,0.99724749)"
           id="text19190"
           style="font-size:3.93042px;line-height:1.25;font-family:'Sans Serif Collection';-inkscape-font-specification:'Sans Serif Collection';fill:#aaa3bc;fill-opacity:0.430044;stroke-width:0.105279">
          <path
             d="m 1111.8908,644.4141 q 0.4323,0 0.6878,0.21617 0.2555,0.21617 0.2555,0.60921 0,0.43628 -0.2791,0.68783 -0.2751,0.24761 -0.7703,0.24761 -0.2162,0 -0.4088,-0.0393 -0.1886,-0.0393 -0.3183,-0.11398 v -0.32623 q 0.1414,0.0865 0.3419,0.13757 0.2044,0.0472 0.3891,0.0472 0.3105,0 0.4992,-0.14542 0.1926,-0.14936 0.1926,-0.45986 0,-0.27513 -0.169,-0.42056 -0.1691,-0.14935 -0.5346,-0.14935 -0.11,0 -0.2515,0.0196 -0.1415,0.0196 -0.228,0.0393 l -0.1729,-0.11005 0.1061,-1.32455 h 1.4071 v 0.31443 h -1.1123 l -0.067,0.8136 q 0.067,-0.0118 0.1808,-0.0275 0.1139,-0.0157 0.2515,-0.0157 z"
             id="path19257" />
        </g>
        <g
           aria-label="6"
           transform="scale(1.0027601,0.99724749)"
           id="text19194"
           style="font-size:3.93042px;line-height:1.25;font-family:'Sans Serif Collection';-inkscape-font-specification:'Sans Serif Collection';fill:#aaa3bc;fill-opacity:0.430044;stroke-width:0.105279">
          <path
             d="m 1101.8286,651.49373 q 0,-0.30265 0.051,-0.5935 0.055,-0.29478 0.1926,-0.5306 0.1415,-0.23976 0.393,-0.38125 0.2516,-0.1415 0.6485,-0.1415 0.083,0 0.1808,0.008 0.1022,0.008 0.1651,0.0275 v 0.29479 q -0.071,-0.0236 -0.1611,-0.0354 -0.087,-0.0118 -0.1769,-0.0118 -0.2712,0 -0.452,0.0904 -0.1808,0.0904 -0.2869,0.24762 -0.1022,0.15721 -0.1494,0.3616 -0.047,0.20438 -0.059,0.43627 h 0.024 q 0.09,-0.13756 0.2515,-0.23189 0.1612,-0.0983 0.4127,-0.0983 0.3655,0 0.5896,0.22403 0.224,0.2201 0.224,0.62887 0,0.44021 -0.2437,0.69175 -0.2397,0.25155 -0.6485,0.25155 -0.2673,0 -0.4834,-0.13364 -0.2162,-0.13363 -0.3459,-0.40876 -0.1258,-0.27513 -0.1258,-0.69568 z m 0.9512,0.94723 q 0.2476,0 0.4009,-0.15722 0.1533,-0.16115 0.1533,-0.49523 0,-0.26727 -0.1376,-0.42449 -0.1336,-0.15721 -0.4048,-0.15721 -0.1848,0 -0.3223,0.0786 -0.1376,0.0747 -0.2162,0.1926 -0.075,0.11791 -0.075,0.24368 0,0.16901 0.067,0.33802 0.067,0.16507 0.2005,0.27513 0.1336,0.10612 0.3341,0.10612 z"
             id="path19260" />
        </g>
      </g>
    </g>
  </g>
  <g
     inkscape:groupmode="layer"
     id="layer3"
     inkscape:label="guide lines"
     style="display:none;fill:none;stroke:#000000;stroke-opacity:0.986801"
     transform="translate(-93.066024,-136.56602)">
    <circle
       style="fill:none;fill-opacity:1;stroke:#000000;stroke-width:0.120626;stroke-linecap:round;stroke-linejoin:round;stroke-dasharray:none;stroke-opacity:0.986801"
       id="path1773"
       cx="107.35352"
       cy="150.85352"
       r="7.8771873" />
    <rect
       style="fill:none;fill-opacity:1;stroke:#000000;stroke-width:0.128054;stroke-linecap:round;stroke-linejoin:round;stroke-dasharray:none;stroke-opacity:0.986801"
       id="rect1908"
       width="17.334448"
       height="17.334446"
       x="98.686302"
       y="142.18629"
       inkscape:label="safe_zone_66x66" />
  </g>
</svg>
