<?xml version="1.0" encoding="UTF-8" standalone="no"?>
<!-- Created with Inkscape (http://www.inkscape.org/) -->

<svg
   xmlns:dc="http://purl.org/dc/elements/1.1/"
   xmlns:cc="http://creativecommons.org/ns#"
   xmlns:rdf="http://www.w3.org/1999/02/22-rdf-syntax-ns#"
   xmlns:svg="http://www.w3.org/2000/svg"
   xmlns="http://www.w3.org/2000/svg"
   xmlns:sodipodi="http://sodipodi.sourceforge.net/DTD/sodipodi-0.dtd"
   xmlns:inkscape="http://www.inkscape.org/namespaces/inkscape"
   version="1.1"
   id="svg2"
   width="367"
   height="384"
   viewBox="0 0 367 384"
   sodipodi:docname="cube.svg"
   inkscape:version="0.92.2 2405546, 2018-03-11">
  <metadata
     id="metadata8">
    <rdf:RDF>
      <cc:Work
         rdf:about="">
        <dc:format>image/svg+xml</dc:format>
        <dc:type
           rdf:resource="http://purl.org/dc/dcmitype/StillImage" />
        <dc:title></dc:title>
      </cc:Work>
    </rdf:RDF>
  </metadata>
  <defs
     id="defs6" />
  <sodipodi:namedview
     pagecolor="#ffffff"
     bordercolor="#666666"
     borderopacity="1"
     objecttolerance="10"
     gridtolerance="10"
     guidetolerance="10"
     inkscape:pageopacity="0"
     inkscape:pageshadow="2"
     inkscape:window-width="1600"
     inkscape:window-height="840"
     id="namedview4"
     showgrid="false"
     inkscape:zoom="0.80370391"
     inkscape:cx="34.091652"
     inkscape:cy="174.09527"
     inkscape:window-x="0"
     inkscape:window-y="0"
     inkscape:window-maximized="1"
     inkscape:current-layer="svg2"
     inkscape:pagecheckerboard="true" />
  <g
     id="g817">
    <path
       style="fill:#ffffff;stroke:none"
       d="M 197.69491,14.644078 305.8983,65.084754 190.37288,97.627126 141.55932,22.779671 Z"
       id="path910"
       inkscape:connector-curvature="0" />
    <path
       style="fill:#55ccff"
       d="m 147.46972,376.85686 c -7.68335,-3.92872 -15.96577,-8.50782 -18.40538,-10.17578 -2.43961,-1.66795 -7.12041,-4.33315 -10.40176,-5.92265 -3.28135,-1.58951 -8.60672,-4.68323 -11.83414,-6.87493 -3.22742,-2.19171 -8.852476,-5.32394 -12.500117,-6.96053 -3.647641,-1.63658 -8.768018,-4.54353 -11.378616,-6.45989 -2.610599,-1.91635 -8.211368,-5.06325 -12.446154,-6.99311 -4.234786,-1.92985 -10.467998,-5.47226 -13.851582,-7.87202 C 49.623932,320.61341 24.846954,306.42446 11.473749,299.72588 5.9482854,296.9582 1.9820797,294.29233 1.247486,292.85234 -0.09940423,290.21208 0.08689392,68.937694 1.4386421,65.808052 2.4498758,63.466787 13.81279,58.938495 31,54.027406 c 7.975,-2.278783 18.1,-5.655045 22.5,-7.502803 4.4,-1.847758 13.175,-4.810904 19.5,-6.584768 6.325,-1.773865 19.375,-6.124054 29,-9.667086 9.625,-3.543033 22.68367,-7.938581 29.01927,-9.767883 6.3356,-1.829303 13.9856,-4.414025 17,-5.743828 3.0144,-1.329802 9.16425,-3.409314 13.66634,-4.621137 4.50208,-1.2118238 10.80208,-3.1103901 14,-4.2190364 19.96739,-6.9222521 22.26716,-7.0254115 33.68419,-1.51095 5.02161,2.425453 13.6302,6.2064244 19.1302,8.4021594 5.5,2.195734 18.775,8.591782 29.5,14.213439 10.725,5.621657 21.3,10.855503 23.5,11.63077 2.2,0.775267 7.825,3.589432 12.5,6.253701 4.675,2.664268 10.89822,5.62248 13.82939,6.573805 15.82202,5.13512 56.74069,27.135393 57.91657,31.139335 1.96063,6.676101 0.95286,231.661396 -1.05138,234.720256 -1.54859,2.36344 -4.41356,3.51843 -29.69458,11.97107 -5.775,1.93085 -16.8,5.61867 -24.5,8.19514 -7.7,2.57647 -16.475,5.51083 -19.5,6.52081 -3.025,1.00997 -10.9,3.67151 -17.5,5.91454 C 207.86389,372.25154 169.88441,384 163.40952,384 c -1.08355,0 -8.25646,-3.21441 -15.9398,-7.14314 z M 233.67325,47.409106 C 236.65018,39.651363 219.16879,29.654362 200.25,28.2955 192,27.702936 192,27.702936 192,31.155301 c 0,7.811609 12.09443,14.268781 31.47203,16.802807 9.09889,1.189868 9.54313,1.16596 10.20122,-0.549002 z"
       id="path831"
       inkscape:connector-curvature="0" />
    <path
       style="fill:#89b1b1"
       d="m 147.46972,376.85686 c -7.68335,-3.92872 -15.96577,-8.50782 -18.40538,-10.17578 -2.43961,-1.66795 -7.12041,-4.33315 -10.40176,-5.92265 -3.28135,-1.58951 -8.60672,-4.68323 -11.83414,-6.87493 -3.22742,-2.19171 -8.852476,-5.32394 -12.500117,-6.96053 -3.647641,-1.63658 -8.768018,-4.54353 -11.378616,-6.45989 -2.610599,-1.91635 -8.211368,-5.06325 -12.446154,-6.99311 -4.234786,-1.92985 -10.467998,-5.47226 -13.851582,-7.87202 C 49.623932,320.61341 24.846954,306.42446 11.473749,299.72588 5.9482854,296.9582 1.9820797,294.29233 1.247486,292.85234 -0.09940423,290.21208 0.08689392,68.937694 1.4386421,65.808052 2.4498758,63.466787 13.81279,58.938495 31,54.027406 c 7.975,-2.278783 18.1,-5.655045 22.5,-7.502803 4.4,-1.847758 13.175,-4.810904 19.5,-6.584768 6.325,-1.773865 19.375,-6.124054 29,-9.667086 9.625,-3.543033 22.68367,-7.938581 29.01927,-9.767883 6.3356,-1.829303 13.9856,-4.414025 17,-5.743828 3.0144,-1.329802 9.16425,-3.409314 13.66634,-4.621137 4.50208,-1.2118238 10.80208,-3.1103901 14,-4.2190364 19.96739,-6.9222521 22.26716,-7.0254115 33.68419,-1.51095 5.02161,2.425453 13.6302,6.2064244 19.1302,8.4021594 5.5,2.195734 18.775,8.591782 29.5,14.213439 10.725,5.621657 21.3,10.855503 23.5,11.63077 2.2,0.775267 7.825,3.589432 12.5,6.253701 4.675,2.664268 10.89822,5.62248 13.82939,6.573805 15.82202,5.13512 56.74069,27.135393 57.91657,31.139335 1.96063,6.676101 0.95286,231.661396 -1.05138,234.720256 -1.54859,2.36344 -4.41356,3.51843 -29.69458,11.97107 -5.775,1.93085 -16.8,5.61867 -24.5,8.19514 -7.7,2.57647 -16.475,5.51083 -19.5,6.52081 -3.025,1.00997 -10.9,3.67151 -17.5,5.91454 C 207.86389,372.25154 169.88441,384 163.40952,384 c -1.08355,0 -8.25646,-3.21441 -15.9398,-7.14314 z M 261,289.57246 c 3.575,-1.31194 10.22541,-3.74354 14.77869,-5.40355 9.43037,-3.43808 9.1838,-3.19653 21.10785,-20.6784 17.19785,-25.21383 20.48704,-40.94668 13.51894,-64.66394 -0.27041,-0.92039 -8.18267,-6.69223 -17.58281,-12.82632 -17.09116,-11.15289 -17.09116,-11.15289 -22.77939,-8.60016 -3.12853,1.404 -8.81652,3.21078 -12.63996,4.01507 -14.11345,2.96885 -18.43266,5.9876 -26.59118,18.58484 -2.31532,3.575 -6.70773,9.39478 -9.76091,12.93285 -12.18146,14.11606 -12.05451,13.81456 -12.02678,28.56395 0.0391,20.811 0.12635,21.01005 13.97555,31.89146 22.80572,17.91862 27.65079,19.98213 38,16.1842 z M 97.397008,273.66605 c 2.256646,-1.83368 6.352992,-4.61234 9.102992,-6.1748 15.08466,-8.57062 14.5,-7.32016 14.5,-31.01222 0,-21.35064 0,-21.35064 -9.52448,-38.94659 C 97.861185,172.38069 96.878143,171.16269 86.181484,166.19281 71.228297,159.24526 69.005086,158.94192 63.829993,163.1431 61.448497,165.07641 55.675,169.19853 51,172.30335 36.803137,181.73196 38.109562,178.91288 39.091556,198 c 1.420213,27.60482 2.329104,30.50095 17.07762,54.41684 8.27526,13.419 8.27526,13.419 18.803042,17.55328 5.79028,2.27386 11.652782,4.76985 13.027782,5.54665 3.666317,2.07126 4.859558,1.83626 9.397008,-1.85072 z M 203.59791,69.454964 C 225.2306,65.682538 232.46446,61.26052 233.26228,51.32128 234.58247,34.874513 221.62858,28.438969 187.5,28.586394 c -43.97909,0.189976 -71.51431,12.99249 -63.21628,29.392437 5.14092,10.160335 49.8026,16.622525 79.31419,11.476133 z"
       id="path829"
       inkscape:connector-curvature="0" />
    <path
       style="fill:#649795"
       d="m 155.51933,380.38864 c -3.28937,-1.98342 -9.4616,-5.32514 -13.71607,-7.42604 -4.25446,-2.1009 -9.66316,-5.14212 -12.01932,-6.75826 -2.35617,-1.61615 -7.20894,-4.40986 -10.78394,-6.20825 -3.575,-1.7984 -9.09641,-5.03104 -12.2698,-7.18366 -3.17339,-2.15261 -8.754236,-5.25287 -12.401877,-6.88946 -3.647641,-1.63658 -8.768018,-4.54353 -11.378616,-6.45989 -2.610599,-1.91635 -8.211368,-5.06325 -12.446154,-6.99311 -4.234786,-1.92985 -10.467998,-5.47226 -13.851582,-7.87202 -7.067327,-5.0124 -31.826677,-19.18422 -45.361199,-25.96396 -12.4838997,-6.25346 -11.4680708,0.006 -10.69276907,-65.88881 C 0.9684453,201.26033 1.2273763,174.375 1.1734051,173 0.11175757,145.95288 -0.03092574,112.33197 0.85926835,98.979002 1.5609545,88.453662 1.6266148,80.206483 1.0410078,76.151827 -0.56932254,65.002139 1.7402935,63.399784 32.126209,54.585683 c 8.455585,-2.452728 17.988312,-5.619171 21.183837,-7.03654 3.195526,-1.417368 13.095526,-4.772912 22,-7.456764 C 84.214521,37.408527 99.15,32.42737 108.5,29.02314 c 9.35,-3.404231 20.825,-7.223249 25.5,-8.486709 4.675,-1.263459 11.13039,-3.470229 14.3453,-4.903933 3.21492,-1.433704 7.71492,-3.076335 10,-3.650292 2.28509,-0.573957 12.1694,-3.5956754 21.96514,-6.7149297 17.81043,-5.6713715 17.81043,-5.6713715 28,-0.5339444 5.60426,2.8255849 14.74494,6.9401471 20.31263,9.1434721 5.56769,2.203325 18.3833,8.345668 28.47913,13.649651 10.09584,5.303984 21.0582,10.741582 24.36081,12.083551 3.3026,1.341969 9.00483,4.22227 12.67162,6.400669 3.66679,2.178398 9.97405,5.146789 14.01613,6.596424 15.37872,5.515356 56.75439,27.197704 57.58921,30.178829 0.41801,1.492739 0.68378,32.189072 0.59058,68.214072 -0.0932,36.025 -0.20371,79.45 -0.24557,96.5 -0.0419,17.05 0.20557,34.41527 0.54984,38.5895 0.34428,4.17422 0.29432,12.45515 -0.11102,18.40205 -0.94791,13.90704 -1.10259,14.069 -18.66289,19.54085 -7.3485,2.28982 -18.76091,6.17189 -25.36091,8.62681 -6.6,2.45493 -16.95,5.97226 -23,7.81629 -6.05,1.84402 -16.85,5.36582 -24,7.82622 -27.47739,9.45527 -98.28792,32.67504 -104.14434,34.15039 -8.41165,2.11907 -9.03445,2.03792 -15.83633,-2.06347 z M 205.5,349.98392 c 9.9,-3.18166 19.8,-6.27122 22,-6.86569 3.60194,-0.97329 4.53844,-1.97116 9.41068,-10.02749 9.48508,-15.68373 10.30733,-16.34042 27.85899,-22.24965 15.26967,-5.14094 15.26967,-5.14094 22.64342,2.00899 8.73417,8.46904 8.87435,8.49126 22.29612,3.53307 5.38493,-1.98927 13.61579,-4.63113 18.29079,-5.87081 21.04324,-5.58008 19.69012,-3.54478 20.47168,-30.79247 1.11361,-38.82373 1.30618,-37.6499 -6.67346,-40.67922 -9.95418,-3.77892 -9.29822,-1.60531 -9.29822,-30.81107 0,-25.67337 0,-25.67337 8,-32.13128 8,-6.45792 8,-6.45792 7.64689,-39.52811 -0.19421,-18.1886 -0.51942,-33.2454 -0.7227,-33.45955 -0.20327,-0.21415 -3.70275,0.79393 -7.77662,2.24019 -4.07387,1.44625 -11.24616,3.54134 -15.93842,4.65575 -4.69226,1.11441 -11.83388,3.52714 -15.87027,5.36163 -4.03638,1.83449 -10.81523,4.10533 -15.0641,5.04631 -7.72521,1.71087 -7.72521,1.71087 -14.63495,15.89818 -9.21152,18.91337 -9.39468,19.11709 -19.95232,22.19138 -4.77813,1.39135 -12.19921,3.65872 -16.49129,5.0386 -9.1783,2.95078 -8.59319,3.18045 -13.61029,-5.34237 C 219.53238,143.66995 219.2905,143.61599 198,151.488 c -2.475,0.91511 -8.54888,2.66834 -13.4975,3.89607 -10.83888,2.68906 -9.93138,-0.27412 -9.00413,29.40043 0.83563,26.74282 0.0764,24.72127 12.00163,31.95421 3.3,2.00152 6.33696,4.11661 6.74881,4.70021 1.34255,1.90244 0.007,47.56254 -1.44961,49.57324 -0.71456,0.98612 -4.94361,5.80702 -9.39788,10.71311 -8.09869,8.92016 -8.09869,8.92016 -7.9964,42.34745 0.11673,38.15072 -0.19617,36.61552 6.88528,33.78122 2.86539,-1.14685 13.3098,-4.68836 23.2098,-7.87002 z m -26.83086,4.28975 c -0.67212,-1.0875 -1.19594,-32.48853 -0.83873,-50.27789 0.25108,-12.50422 0.25108,-12.50422 8.77541,-21.93733 10.79996,-11.95136 10.11454,-10.24043 10.43942,-26.05845 0.7425,-36.15108 0.71581,-36.31153 -6.79524,-40.85671 -12.12316,-7.33612 -11.73494,-6.78479 -11.85632,-16.83777 -0.0585,-4.84304 -0.46367,-14.97784 -0.90043,-22.52179 -0.89201,-15.40708 -0.66257,-16.15572 5.29238,-17.26878 2.0429,-0.38185 9.91145,-2.67892 17.48566,-5.10461 19.50056,-6.24517 18.30989,-6.6692 27.6295,9.83966 3.63632,6.44144 3.98058,6.55473 11.33848,3.73136 2.8934,-1.11025 8.63573,-2.87054 12.76073,-3.91174 18.40786,-4.6464 17.91288,-4.2403 26.65296,-21.86648 8.89432,-17.93724 7.77348,-16.67178 16.53884,-18.67288 3.68049,-0.84024 10.00909,-3.03945 14.06355,-4.88712 4.05446,-1.84768 10.94314,-4.15047 15.30819,-5.11731 4.36506,-0.96685 10.34093,-2.65372 13.27972,-3.74861 7.81851,-2.91289 7.54079,-3.98799 7.76626,30.06381 0.19751,29.82902 0.19751,29.82902 -7.71892,35.744 -9.67225,7.22688 -9.05655,4.48029 -8.1459,36.33813 0.7553,26.42315 0.7553,26.42315 7.73864,29.28334 3.84083,1.5731 7.38139,3.25823 7.86789,3.74473 0.94853,0.94853 0.92459,54.16643 -0.0255,56.64227 -0.73449,1.91403 -5.45008,3.86163 -17.82575,7.36222 -5.5,1.55574 -13.97262,4.22714 -18.82805,5.93645 -12.17648,4.28662 -12.22365,4.27714 -20.56924,-4.13485 -7.18553,-7.24267 -7.18553,-7.24267 -23.39412,-1.75 -18.72025,6.34382 -20.27526,7.50372 -28.83186,21.50609 -6.63949,10.86514 -4.1363,9.37249 -29.48071,17.57922 -24.12291,7.8112 -26.89388,8.52886 -27.72688,7.18104 z M 261,289.57246 c 3.575,-1.31194 10.22541,-3.74354 14.77869,-5.40355 9.43037,-3.43808 9.1838,-3.19653 21.10785,-20.6784 17.19785,-25.21383 20.48704,-40.94668 13.51894,-64.66394 -0.27041,-0.92039 -8.18267,-6.69223 -17.58281,-12.82632 -17.09116,-11.15289 -17.09116,-11.15289 -22.77939,-8.60016 -3.12853,1.404 -8.81652,3.21078 -12.63996,4.01507 -14.11345,2.96885 -18.43266,5.9876 -26.59118,18.58484 -2.31532,3.575 -6.70773,9.39478 -9.76091,12.93285 -12.18146,14.11606 -12.05451,13.81456 -12.02678,28.56395 0.0391,20.811 0.12635,21.01005 13.97555,31.89146 22.80572,17.91862 27.65079,19.98213 38,16.1842 z M 153.58155,322.41628 C 153.6631,289.5 153.6631,289.5 149.46086,282 c -11.23021,-20.04325 -10.58744,-17.40964 -10.65239,-43.64561 -0.0319,-12.891 0.11063,-23.59724 0.31676,-23.79165 0.20612,-0.19441 3.4107,-2.016 7.12129,-4.04796 8.71275,-4.77123 8.0901,-2.31045 7.24918,-28.64937 -0.82061,-25.7032 -0.55692,-25.25162 -19.48356,-33.36525 -4.13168,-1.7712 -12.14469,-5.54748 -17.8067,-8.39174 -11.84463,-5.95004 -10.49117,-6.14123 -16.241006,2.29427 -5.52972,8.11258 -5.382308,8.11037 -20.464434,0.30645 C 65.957152,135.70169 64.344772,133.7554 59.029984,118 56.5,110.5 56.5,110.5 37.773457,100.67649 27.182433,95.120678 18.535656,91.168946 17.870088,91.58029 14.04683,93.943193 17.698495,141.2372 22.937788,157.21388 28,172.65057 28,172.65057 28,192.2435 c 0,22.71884 0.125737,22.16494 -5.607235,24.70091 C 18,218.88754 18,218.88754 17.795455,245.44377 c -0.1125,14.60593 -0.225,28.44733 -0.25,30.75867 -0.04873,4.50554 7.977715,10.28837 26.182588,18.86382 8.28974,3.90491 8.288009,3.9054 12.658219,-3.56536 4.871974,-8.32851 4.819359,-8.30727 10.936708,-4.41602 2.847367,1.81121 9.447656,5.57056 14.667309,8.35412 9.49028,5.061 9.49028,5.061 12.566426,13.561 6.991395,19.31861 8.365185,20.68009 35.165185,34.84988 8.12796,4.29745 16.35311,8.78749 18.27811,9.97786 5.60183,3.46405 5.49364,4.07296 5.58155,-31.41146 z M 131.4118,342.163 C 103.36815,327.06236 102.70193,326.39109 96.01742,306.5 c -2.688443,-8 -2.688443,-8 -12.602931,-13 -5.452969,-2.75 -12.487132,-6.74135 -15.631473,-8.86966 -6.800038,-4.60274 -7.614591,-4.41599 -11.672322,2.67619 -5.536518,9.67682 -5.170039,9.6942 -23.911965,-1.13406 -13.702053,-7.91644 -12.603514,-6.09765 -12.133719,-20.08904 0.213917,-6.37089 0.399302,-19.22233 0.411965,-28.55876 C 20.5,220.54934 20.5,220.54934 25.25,218.28438 30.772244,215.6512 30.504701,217.32891 30.079431,188 29.84018,171.5 29.84018,171.5 24.99917,156.5 c -4.841009,-15 -4.841009,-15 -5.548819,-37.02072 -0.907646,-28.237808 -2.232235,-26.937319 17.203615,-16.89061 17.444042,9.01712 17.775782,9.2714 19.939492,15.28379 6.62687,18.41437 7.546061,19.51091 23.178716,27.65099 16.368651,8.52331 15.053654,8.56842 21.370236,-0.73316 4.86796,-7.16839 5.10446,-7.17422 18.62425,-0.45941 5.90334,2.93198 13.20834,6.32292 16.23334,7.53543 14.20867,5.69524 14.62124,6.50456 15.43437,30.27634 0.83298,24.3525 1.70649,21.71906 -9.35009,28.1885 -5.41572,3.16885 -5.41572,3.16885 -5.7225,27.31998 -0.34253,26.96603 -1.19477,23.4693 11.05261,45.34887 4.19823,7.5 4.19823,7.5 3.80301,37.75 -0.35812,27.41123 -0.55109,30.24184 -2.0563,30.163 -0.91361,-0.0478 -8.90079,-3.98535 -17.7493,-8.75 z M 97.397008,273.66605 c 2.256646,-1.83368 6.352992,-4.61234 9.102992,-6.1748 15.08466,-8.57062 14.5,-7.32016 14.5,-31.01222 0,-21.35064 0,-21.35064 -9.52448,-38.94659 C 97.861185,172.38069 96.878143,171.16269 86.181484,166.19281 71.228297,159.24526 69.005086,158.94192 63.829993,163.1431 61.448497,165.07641 55.675,169.19853 51,172.30335 36.803137,181.73196 38.109562,178.91288 39.091556,198 c 1.420213,27.60482 2.329104,30.50095 17.07762,54.41684 8.27526,13.419 8.27526,13.419 18.803042,17.55328 5.79028,2.27386 11.652782,4.76985 13.027782,5.54665 3.666317,2.07126 4.859558,1.83626 9.397008,-1.85072 z M 175.11246,136.90768 c 4.06315,-1.70078 10.98754,-3.9588 15.38754,-5.01782 8.66162,-2.08473 23.16721,-7.54237 24.11274,-9.07227 0.32169,-0.52052 -1.05054,-3.40954 -3.04941,-6.42006 -4.48997,-6.76238 -4.63796,-6.54735 7.19681,-10.45672 5.35692,-1.76956 13.06838,-4.52672 17.13658,-6.127033 7.39672,-2.909662 7.39672,-2.909662 14.5,-0.340036 18.20117,6.584309 24.09288,5.924399 57.60328,-6.451971 5.775,-2.132876 13.425,-4.72248 17,-5.754676 10.9643,-3.165679 10.10138,-4.007284 -17.5,-17.067722 -26.7814,-12.672436 -30.62401,-13.753964 -45.11386,-12.697582 -8.81273,0.642491 -9.3149,0.562962 -15.19824,-2.406937 -5.58527,-2.819437 -8.39149,-2.851314 -6.67615,-0.07584 2.66028,4.304416 10.84167,6.307816 24.81884,6.077454 13.83059,-0.227946 13.83059,-0.227946 31,7.844788 31.16312,14.652313 30.19928,13.660367 17.66941,18.184623 -40.75868,14.717052 -45.80237,15.417972 -62.80169,8.727486 -7.30169,-2.873752 -7.30169,-2.873752 -20.5,2.03468 -7.25907,2.699636 -16.46081,5.942806 -20.44831,7.207026 -8.33076,2.64125 -8.62413,3.32496 -4.25,9.90493 4.843,7.2853 4.1924,7.84683 -15,12.94648 -5.775,1.53448 -13.3573,3.99883 -16.84955,5.47633 -6.34955,2.68636 -6.34955,2.68636 -13,-1.30611 C 157.4927,129.92084 152.25,127.24504 149.5,126.17047 141.84037,123.17745 123,112.9574 123,111.79542 c 0,-0.56727 1.35,-2.56896 3,-4.4482 4.62511,-5.26771 4.17132,-5.89816 -8.75,-12.156342 C 105.5,89.5 105.5,89.5 90.5,89.5 c -15,0 -15,0 -30.802251,-8.343248 C 41.594697,71.59873 41.6021,71.615562 53.580116,67.246156 84.895438,55.822783 88.725783,54.803416 96.05918,55.941232 105.75884,57.446186 116.28002,57.344032 115.75479,55.75 115.35052,54.523053 112.72291,54.116379 95,52.537795 85.024133,51.649242 34.15611,67.654728 34.613179,71.538345 c 0.06225,0.52891 9.250613,5.613502 20.418589,11.299094 20.305412,10.337438 20.305412,10.337438 34.585431,10.21835 14.280021,-0.119088 14.280021,-0.119088 23.831411,4.344301 10.71927,5.00914 11.23903,5.91376 6.4994,11.31191 -1.6786,1.91182 -2.88452,3.97847 -2.67982,4.59257 0.43575,1.30724 19.89527,11.51538 30.74295,16.12724 4.13113,1.75634 9.97512,4.85268 12.98665,6.88077 6.56115,4.41853 5.12516,4.35798 14.11467,0.5951 z m 17.38028,-64.951763 c 18.95352,-1.797312 37.79142,-7.742334 40.34917,-12.733735 9.11147,-17.780843 -9.07514,-32.230998 -40.54975,-32.218765 -44.54886,0.01731 -73.21104,12.169564 -69.57037,29.496583 2.2981,10.937331 36.80678,18.58182 69.77095,15.455917 z"
       id="path827"
       inkscape:connector-curvature="0" />
    <path
       style="fill:#316597"
       d="m 156,380.33463 c -3.025,-1.92854 -8.65,-4.98915 -12.5,-6.80136 -3.85,-1.8122 -9.29131,-4.88204 -12.0918,-6.82185 -2.80049,-1.93982 -8.42549,-5.20452 -12.5,-7.2549 -4.07451,-2.05037 -9.8832,-5.39365 -12.9082,-7.4295 -3.025,-2.03585 -8.050766,-4.85806 -11.168369,-6.27159 -3.117603,-1.41352 -8.3809,-4.41208 -11.696215,-6.66347 -3.315316,-2.25139 -9.31455,-5.59719 -13.331631,-7.43511 C 65.786703,329.81893 59.575,326.28747 56,323.80918 48.763899,318.79289 21.97657,303.49739 9.25,297.11504 3.7507945,294.3572 0.98563892,292.3979 0.9569292,291.23884 0.93324027,290.28248 1.0428057,265.2 1.2004078,235.5 1.35801,205.8 1.2739804,176.55 1.0136753,170.5 -0.36358506,138.48977 1.0538919,67.466185 3.107818,65.571645 5.3198119,63.531302 16.993159,59.275836 32.054479,55.019269 39.70437,52.857288 49.009113,49.754251 52.731686,48.123631 56.454259,46.49301 65.35,43.485153 72.5,41.439504 c 7.15,-2.04565 21.513846,-6.83739 31.91966,-10.648312 10.40581,-3.810922 23.1112,-8.044573 28.2342,-9.408114 5.123,-1.36354 11.90916,-3.634366 15.08034,-5.04628 3.17119,-1.411914 10.9408,-4.053019 17.2658,-5.869123 6.325,-1.8161036 16,-4.9141474 21.5,-6.8845415 12.25439,-4.39017911 11.38004,-4.39978101 19.39994,0.2130457 3.63003,2.0878986 12.45006,6.1877537 19.60006,9.1107888 7.15,2.923036 21.325,9.680999 31.5,15.017697 10.175,5.336697 21.50623,10.897428 25.18051,12.35718 3.67428,1.459752 9.17189,4.247812 12.21691,6.195687 3.04502,1.947876 8.81379,4.720504 12.81949,6.161395 9.42664,3.390861 55.93696,26.636622 57.80975,28.893193 1.21812,1.467745 1.39396,10.947977 1.1657,62.84818 -0.14785,33.61583 -0.16031,80.0197 -0.0277,103.1197 0.45175,78.69413 3.21826,69.91169 -24.66466,78.29928 -5.5,1.65448 -16.3,5.25247 -24,7.99554 -16.2554,5.79086 -30.38725,10.54994 -50,16.83813 -7.7,2.46875 -31.325,10.28778 -52.5,17.37562 -53.76924,17.998 -51.00811,17.42115 -59,12.32606 z m 34.5,-23.70136 c 5.5,-1.96645 17.2,-5.84367 26,-8.61606 16,-5.0407 16,-5.0407 21.41068,-13.95691 9.05337,-14.91896 10.50243,-16.11061 26.08932,-21.45491 16.73284,-5.73721 14.87838,-5.92508 23.63685,2.39461 8.62393,8.19189 7.29514,7.97186 20.47745,3.39085 5.71214,-1.98504 14.2107,-4.67042 18.8857,-5.96752 14.15291,-3.92679 21.73449,-7.22503 22.35275,-9.72417 0.74685,-3.01898 1.05564,-60.22936 0.3314,-61.4012 -0.3202,-0.51809 -3.78971,-2.20041 -7.71003,-3.7385 -8.61124,-3.3785 -7.68613,-0.15751 -8.40432,-29.26159 -0.59723,-24.20213 -0.59723,-24.20213 5.66649,-29.33265 12.85564,-10.52986 12.06869,-9.56677 11.21194,-13.7216 -0.42457,-2.05899 -0.85855,-16.56862 -0.96439,-32.24362 -0.10585,-15.675 -0.25801,-29.0625 -0.33814,-29.75 -0.21359,-1.83247 -4.36874,-1.52706 -10.13235,0.74474 -2.78338,1.0971 -9.43754,3.08367 -14.78702,4.41459 -5.34948,1.33092 -12.83915,3.82326 -16.64371,5.53854 -3.80456,1.71527 -8.97956,3.57381 -11.5,4.13009 -12.77531,2.81958 -11.29161,1.47299 -18.99231,17.23716 -9.09741,18.6234 -9.24072,18.78824 -18.75282,21.56953 -4.31062,1.2604 -11.26704,3.37697 -15.45871,4.70349 -9.78944,3.09803 -9.2346,3.20251 -12.41706,-2.33814 -9.73117,-16.94192 -9.29844,-16.79001 -29.56377,-10.37819 -8.46887,2.67949 -17.76984,5.42663 -20.66883,6.10475 -7.40479,1.7321 -7.67692,2.53903 -6.73817,19.98033 0.43053,7.99871 0.83368,18.91616 0.89591,24.26101 0.12873,11.05676 0.68727,11.88758 12.75368,18.97093 5.64054,3.31117 5.64054,3.31117 6.02609,14.81117 1.07608,32.09727 0.48629,35.05239 -9.13594,45.77548 -10.81642,12.0539 -10.89223,12.20654 -10.04514,20.22452 0.37769,3.575 0.29846,9.875 -0.17607,14 -0.82355,7.15888 -0.24175,40.9097 0.79047,45.85677 0.61102,2.92839 2.05561,2.72637 15.90005,-2.2235 z m -10.89425,-3.46216 c -0.63959,-1.03488 -1.08727,-31.34055 -0.71694,-48.53271 0.27705,-12.8616 0.27705,-12.8616 9.44412,-22.95083 10.23901,-11.26899 10.91898,-14.67398 9.841,-49.2796 -0.43897,-14.09203 -0.43897,-14.09203 -6.05645,-17.19684 -11.58419,-6.40266 -12.60827,-7.80392 -12.68211,-17.35316 -0.0356,-4.59688 -0.43598,-14.31103 -0.88986,-21.58699 -0.95526,-15.31347 -0.86833,-15.53607 6.75402,-17.296 2.86026,-0.66041 10.40569,-2.94995 16.76762,-5.08786 16.39025,-5.50791 16.56465,-5.44055 24.88634,9.61288 4.22672,7.64587 4.40972,7.73765 10.47078,5.25121 2.79165,-1.14522 8.22573,-2.91232 12.07573,-3.92689 22.25139,-5.86376 20.69514,-4.63982 30.45902,-23.95487 7.76936,-15.36945 7.76936,-15.36945 15.65517,-17.4379 4.3372,-1.13765 11.03581,-3.46148 14.88581,-5.16407 3.85,-1.7026 10.825,-4.00661 15.5,-5.12003 4.675,-1.11343 10.40083,-2.70301 12.72406,-3.53242 5.72121,-2.0425 5.4648,-3.34956 5.78356,29.48202 0.28079,28.92102 0.28079,28.92102 -7.86341,35.21476 -8.14421,6.29375 -8.14421,6.29375 -7.77126,34.24097 0.41936,31.4244 -0.1442,29.40448 9.20011,32.97514 C 345,244.17485 345,244.17485 345,271.58742 c 0,31.94109 0.64006,30.03361 -11.20866,33.40384 -4.01024,1.14067 -13.36634,4.08541 -20.79134,6.54388 -16.99097,5.62582 -15.77527,5.75276 -24.27946,-2.53514 -8.45651,-8.24143 -6.666,-7.97696 -20.85938,-3.08102 -24.73643,8.53272 -23.68114,7.72973 -35.19912,26.78385 -3.74954,6.20283 -3.74954,6.20283 -12.09327,8.74782 -4.58905,1.39975 -15.23658,4.79598 -23.66118,7.54717 -16.54863,5.40424 -16.54205,5.40265 -17.30184,4.17329 z m 81.1816,-62.58726 C 262.82931,289.82454 269,287.55269 274.5,285.5353 c 11.47587,-4.20933 11.07111,-3.82495 23.2037,-22.0353 16.89859,-25.36386 17.8938,-28.67945 15.41439,-51.35398 -1.73928,-15.90596 -0.52081,-14.17353 -18.00853,-25.60482 -21.25144,-13.89156 -19.18016,-13.04077 -24.84196,-10.20389 -2.62218,1.31386 -7.2426,2.93764 -10.2676,3.60839 -17.51244,3.88316 -21.06117,6.21516 -29.75679,19.5543 -2.50977,3.85 -6.88131,9.7 -9.71455,13 -13.11317,15.27351 -12.58948,13.93081 -12.25075,31.40966 0.38674,19.95661 -0.0104,19.19907 16.72209,31.89736 23.1588,17.57524 25.57685,18.57366 35.78735,14.77683 z M 154.63027,322.5 c 0.13027,-34 0.13027,-34 -3.1047,-39.5 C 139.42146,262.42094 140,264.64377 140,238.71728 c 0,-23.53651 0,-23.53651 7.5,-27.65275 7.39542,-4.05884 9.4854,-9.67912 7.58808,-20.40555 -0.0818,-0.46257 -0.43078,-8.00436 -0.77546,-16.75954 -0.71454,-18.14996 -0.70633,-18.1402 -23.81262,-28.31166 -6.05,-2.66324 -13.80291,-6.39336 -17.22869,-8.28916 -7.68198,-4.25116 -8.60638,-3.97627 -14.185066,4.21812 -5.375466,7.89589 -4.598543,7.88645 -19.197732,0.23326 C 66.669724,134.82044 65.314444,133.10577 59.535685,116 57.113524,108.83013 57.628291,109.18586 28.283394,94.403285 14.819578,87.620849 15.615474,86.140809 16.254143,116.77277 16.79055,142.5 16.79055,142.5 21.810895,158 c 5.020345,15.5 5.020345,15.5 5.104141,34.16973 0.09697,21.60384 0.131364,21.45281 -5.428858,23.83619 -4.225074,1.81108 -4.225074,1.81108 -4.742451,33.15258 -0.465712,28.21172 -0.353923,31.47293 1.119448,32.65765 C 23.146784,286.06463 48.097349,299 51.00848,299 c 1.455572,0 3.265239,-1.91595 6.139429,-6.5 4.840482,-7.72009 4.344376,-7.64137 13.268158,-2.1054 3.896163,2.41703 10.008933,5.7133 13.583933,7.32505 6.5,2.93045 6.5,2.93045 8.876546,10.3554 6.447575,20.14391 8.375524,22.06356 37.905934,37.74279 8.40537,4.46284 16.28037,8.81789 17.5,9.67789 6.22155,4.38698 6.20421,4.4771 6.34779,-32.99573 z m -22.29649,19.15841 C 105.4154,327.15349 103.20029,324.98813 97.390642,307.5 94.061653,297.47912 94.001835,297.40871 85.519379,293.52773 c -3.860658,-1.76638 -10.564616,-5.53272 -14.897684,-8.36966 -10.049684,-6.57971 -10.39361,-6.54707 -15.059528,1.42919 -5.38341,9.2028 -5.274172,9.21193 -24.521442,-2.04932 C 19.473596,277.77021 20.180755,279.29244 21.035218,263 c 0.389407,-7.425 0.475503,-18.94676 0.191324,-25.60391 -0.640959,-15.01507 -0.277342,-16.61434 4.140766,-18.21195 5.895809,-2.13195 5.910175,-2.19639 5.759939,-25.83796 -0.137453,-21.62994 -0.137453,-21.62994 -5.02763,-36.73806 C 21.209439,141.5 21.209439,141.5 20.473244,119.76907 19.608351,94.239288 19.403825,94.696505 29.37276,99.874179 55.291289,113.33577 53.16377,111.77131 56.06199,119.5 62.876124,137.67128 62.816609,137.60191 79,146.23575 c 17.51946,9.34663 15.837875,9.28492 21.69341,0.79601 5.74702,-8.33161 5.45139,-8.29612 17.91045,-2.14972 5.44288,2.68512 12.37114,5.91807 15.39614,7.18433 15.73089,6.58491 15.63956,6.41828 16.45611,30.02445 0.83016,23.99952 1.47071,21.72734 -7.45611,26.44879 -2.475,1.30905 -5.12238,2.79922 -5.88306,3.31149 -1.09829,0.73963 -1.45426,5.99789 -1.72882,25.53745 -0.37839,26.9278 -0.69883,25.65814 12.01645,47.61145 3.38673,5.84729 4.5337,65.15458 1.25542,64.91535 -0.63799,-0.0466 -7.98479,-3.76218 -16.32621,-8.25694 z M 98.834454,273.60836 c 3.116046,-2.4154 7.240546,-5.16778 9.165546,-6.11639 13.47789,-6.6417 14,-7.78954 14,-30.77852 0,-21.22175 0,-21.22175 -9.14188,-38.2176 -15.534653,-28.88077 -17.996602,-31.34404 -37.541216,-37.5614 -7.183095,-2.28502 -7.183095,-2.28502 -11.5,1.2224 -2.374297,1.92908 -8.514834,6.31839 -13.645638,9.75402 -13.872794,9.28934 -12.826584,7.13463 -11.94649,24.6042 1.460525,28.99092 2.343278,31.89228 16.928793,55.64017 9.000976,14.65523 9.000976,14.65523 17.673704,17.81541 4.77,1.73809 10.697727,4.2354 13.172727,5.54957 6.012588,3.19256 6.305702,3.14889 12.834454,-1.91186 z M 171.69279,141.588 c 3.74397,-1.32659 16.25721,-5.39462 27.80721,-9.04007 11.55,-3.64544 23.925,-7.71378 27.5,-9.04077 3.575,-1.32698 7.85,-2.69775 9.5,-3.04616 1.65,-0.34841 6.825,-1.98364 11.5,-3.63384 4.675,-1.65021 13.225,-4.28383 19,-5.85249 5.775,-1.56866 14.1,-4.21748 18.5,-5.88627 16.58184,-6.288985 27.3526,-9.950267 38.5,-13.087227 6.325,-1.779901 14.59216,-4.118642 18.37148,-5.197201 3.84947,-1.098581 6.48821,-2.338354 6,-2.81901 C 346.5385,82.180352 311.07899,64.978817 303.21392,62.078876 298.67363,60.404818 292.39529,57.395243 289.26204,55.390931 286.1288,53.38662 280.85056,50.7243 277.53262,49.474666 274.21468,48.225031 262.95,42.704844 252.5,37.207584 242.05,31.710323 227.65,24.84764 220.5,21.957178 c -7.15,-2.890463 -15.32525,-6.560225 -18.16723,-8.155027 -5.16723,-2.89964 -5.16723,-2.89964 -20,2.021441 -16.06585,5.330182 -14.53313,6.727264 6.73001,6.134433 32.21078,-0.89806 56.11569,12.520622 51.14686,28.710561 -2.60539,8.489145 4.1815,11.722756 24.79036,11.811354 14.5,0.06233 14.5,0.06233 34.42423,9.563902 C 317.57246,80.698458 322.87019,84 318.60936,84 c -0.85651,0 -5.05651,1.40419 -9.33333,3.120421 -29.88889,11.994026 -40.07899,13.373479 -56.859,7.697094 -9.23536,-3.124159 -9.23536,-3.124159 -19.0762,0.547039 -5.41245,2.019159 -14.7887,5.350656 -20.83611,7.403326 -12.61291,4.28119 -13.13946,4.99576 -8.57251,11.63358 4.85683,7.05917 4.26842,7.55738 -14.93221,12.64331 -5.775,1.5297 -12.67481,3.72041 -15.33291,4.86825 -6.22725,2.6891 -6.29799,2.68198 -12.18044,-1.22523 -2.74266,-1.82171 -6.56165,-3.89446 -8.48665,-4.60612 -5.91711,-2.1875 -27.98623,-13.53241 -27.99332,-14.39031 -0.004,-0.44475 1.40025,-2.55937 3.11982,-4.69915 3.96809,-4.93776 3.45301,-6.14772 -4.33072,-10.173024 C 107.40951,88.345133 106.11299,88 90.665853,88 76.52963,88 76.52963,88 61.285592,80.279223 52.778401,75.970513 46.421582,72.178418 46.901474,71.698526 50.430243,68.169757 87.821486,56.821347 94,57.403912 c 23.95907,2.259075 24.6663,2.108977 22.08257,-4.686724 -1.42046,-3.736099 0.42311,-9.164271 4.73247,-13.934224 4.3876,-4.856548 5.44321,-5.048794 -16.31504,2.971257 -8.25,3.040934 -20.860129,7.204051 -28.022509,9.251369 -7.162381,2.047319 -16.162381,5.098022 -20,6.779341 C 52.639871,59.466249 42.75,62.71975 34.5,65.014934 17.030435,69.875037 16.653953,70.100574 21.686112,72.691277 23.78375,73.771202 36.075,80.147033 49,86.85979 c 12.925,6.712757 27.1,13.61952 31.5,15.34837 4.4,1.72884 9.125,3.90411 10.5,4.83392 1.375,0.92982 7,3.80047 12.5,6.37923 5.5,2.57876 10.9,5.22426 12,5.87889 1.70131,1.01248 48.64194,24.54257 49.19279,24.65904 0.10603,0.0224 3.25603,-1.04464 7,-2.37124 z m 31.92622,-70.114552 c 23.49688,-4.038874 29.87761,-8.207504 30.99691,-20.250753 0.78505,-8.446783 -0.77994,-11.809137 -7.60231,-16.333507 -22.71493,-15.063786 -91.74805,-8.134382 -103.012,10.340135 -2.38762,3.916058 -2.69329,12.338149 -0.55841,15.386115 6.73574,9.616624 51.85193,15.726597 80.17581,10.85801 z"
       id="path825"
       inkscape:connector-curvature="0" />
    <path
       style="fill:#486a69"
       d="m 156,380.33463 c -3.025,-1.92854 -8.65,-4.98915 -12.5,-6.80136 -3.85,-1.8122 -9.29131,-4.88204 -12.0918,-6.82185 -2.80049,-1.93982 -8.42549,-5.20452 -12.5,-7.2549 -4.07451,-2.05037 -9.8832,-5.39365 -12.9082,-7.4295 -3.025,-2.03585 -8.050766,-4.85806 -11.168369,-6.27159 -3.117603,-1.41352 -8.3809,-4.41208 -11.696215,-6.66347 -3.315316,-2.25139 -9.31455,-5.59719 -13.331631,-7.43511 C 65.786703,329.81893 59.575,326.28747 56,323.80918 48.763899,318.79289 21.97657,303.49739 9.25,297.11504 3.7507945,294.3572 0.98563892,292.3979 0.9569292,291.23884 0.93324027,290.28248 1.0428057,265.2 1.2004078,235.5 1.35801,205.8 1.2739804,176.55 1.0136753,170.5 -0.36358506,138.48977 1.0538919,67.466185 3.107818,65.571645 5.3198119,63.531302 16.993159,59.275836 32.054479,55.019269 39.70437,52.857288 49.009113,49.754251 52.731686,48.123631 56.454259,46.49301 65.35,43.485153 72.5,41.439504 c 7.15,-2.04565 21.513846,-6.83739 31.91966,-10.648312 10.40581,-3.810922 23.1112,-8.044573 28.2342,-9.408114 5.123,-1.36354 11.90916,-3.634366 15.08034,-5.04628 3.17119,-1.411914 10.9408,-4.053019 17.2658,-5.869123 6.325,-1.8161036 16,-4.9141474 21.5,-6.8845415 12.25439,-4.39017911 11.38004,-4.39978101 19.39994,0.2130457 3.63003,2.0878986 12.45006,6.1877537 19.60006,9.1107888 7.15,2.923036 21.325,9.680999 31.5,15.017697 10.175,5.336697 21.50623,10.897428 25.18051,12.35718 3.67428,1.459752 9.17189,4.247812 12.21691,6.195687 3.04502,1.947876 8.81379,4.720504 12.81949,6.161395 9.42664,3.390861 55.93696,26.636622 57.80975,28.893193 1.21812,1.467745 1.39396,10.947977 1.1657,62.84818 -0.14785,33.61583 -0.16031,80.0197 -0.0277,103.1197 0.45175,78.69413 3.21826,69.91169 -24.66466,78.29928 -5.5,1.65448 -16.3,5.25247 -24,7.99554 -16.2554,5.79086 -30.38725,10.54994 -50,16.83813 -7.7,2.46875 -31.325,10.28778 -52.5,17.37562 -53.76924,17.998 -51.00811,17.42115 -59,12.32606 z m 34.5,-23.70136 c 5.5,-1.96645 17.2,-5.84367 26,-8.61606 16,-5.0407 16,-5.0407 21.41068,-13.95691 9.05337,-14.91896 10.50243,-16.11061 26.08932,-21.45491 16.73284,-5.73721 14.87838,-5.92508 23.63685,2.39461 8.62393,8.19189 7.29514,7.97186 20.47745,3.39085 5.71214,-1.98504 14.2107,-4.67042 18.8857,-5.96752 14.15291,-3.92679 21.73449,-7.22503 22.35275,-9.72417 0.74685,-3.01898 1.05564,-60.22936 0.3314,-61.4012 -0.3202,-0.51809 -3.78971,-2.20041 -7.71003,-3.7385 -8.61124,-3.3785 -7.68613,-0.15751 -8.40432,-29.26159 -0.59723,-24.20213 -0.59723,-24.20213 5.66649,-29.33265 12.85564,-10.52986 12.06869,-9.56677 11.21194,-13.7216 -0.42457,-2.05899 -0.85855,-16.56862 -0.96439,-32.24362 -0.10585,-15.675 -0.25801,-29.0625 -0.33814,-29.75 -0.21359,-1.83247 -4.36874,-1.52706 -10.13235,0.74474 -2.78338,1.0971 -9.43754,3.08367 -14.78702,4.41459 -5.34948,1.33092 -12.83915,3.82326 -16.64371,5.53854 -3.80456,1.71527 -8.97956,3.57381 -11.5,4.13009 -12.77531,2.81958 -11.29161,1.47299 -18.99231,17.23716 -9.09741,18.6234 -9.24072,18.78824 -18.75282,21.56953 -4.31062,1.2604 -11.26704,3.37697 -15.45871,4.70349 -9.78944,3.09803 -9.2346,3.20251 -12.41706,-2.33814 -9.73117,-16.94192 -9.29844,-16.79001 -29.56377,-10.37819 -8.46887,2.67949 -17.76984,5.42663 -20.66883,6.10475 -7.40479,1.7321 -7.67692,2.53903 -6.73817,19.98033 0.43053,7.99871 0.83368,18.91616 0.89591,24.26101 0.12873,11.05676 0.68727,11.88758 12.75368,18.97093 5.64054,3.31117 5.64054,3.31117 6.02609,14.81117 1.07608,32.09727 0.48629,35.05239 -9.13594,45.77548 -10.81642,12.0539 -10.89223,12.20654 -10.04514,20.22452 0.37769,3.575 0.29846,9.875 -0.17607,14 -0.82355,7.15888 -0.24175,40.9097 0.79047,45.85677 0.61102,2.92839 2.05561,2.72637 15.90005,-2.2235 z m -10.89425,-3.46216 c -0.63959,-1.03488 -1.08727,-31.34055 -0.71694,-48.53271 0.27705,-12.8616 0.27705,-12.8616 9.44412,-22.95083 10.23901,-11.26899 10.91898,-14.67398 9.841,-49.2796 -0.43897,-14.09203 -0.43897,-14.09203 -6.05645,-17.19684 -11.58419,-6.40266 -12.60827,-7.80392 -12.68211,-17.35316 -0.0356,-4.59688 -0.43598,-14.31103 -0.88986,-21.58699 -0.95526,-15.31347 -0.86833,-15.53607 6.75402,-17.296 2.86026,-0.66041 10.40569,-2.94995 16.76762,-5.08786 16.39025,-5.50791 16.56465,-5.44055 24.88634,9.61288 4.22672,7.64587 4.40972,7.73765 10.47078,5.25121 2.79165,-1.14522 8.22573,-2.91232 12.07573,-3.92689 22.25139,-5.86376 20.69514,-4.63982 30.45902,-23.95487 7.76936,-15.36945 7.76936,-15.36945 15.65517,-17.4379 4.3372,-1.13765 11.03581,-3.46148 14.88581,-5.16407 3.85,-1.7026 10.825,-4.00661 15.5,-5.12003 4.675,-1.11343 10.40083,-2.70301 12.72406,-3.53242 5.72121,-2.0425 5.4648,-3.34956 5.78356,29.48202 0.28079,28.92102 0.28079,28.92102 -7.86341,35.21476 -8.14421,6.29375 -8.14421,6.29375 -7.77126,34.24097 0.41936,31.4244 -0.1442,29.40448 9.20011,32.97514 C 345,244.17485 345,244.17485 345,271.58742 c 0,31.94109 0.64006,30.03361 -11.20866,33.40384 -4.01024,1.14067 -13.36634,4.08541 -20.79134,6.54388 -16.99097,5.62582 -15.77527,5.75276 -24.27946,-2.53514 -8.45651,-8.24143 -6.666,-7.97696 -20.85938,-3.08102 -24.73643,8.53272 -23.68114,7.72973 -35.19912,26.78385 -3.74954,6.20283 -3.74954,6.20283 -12.09327,8.74782 -4.58905,1.39975 -15.23658,4.79598 -23.66118,7.54717 -16.54863,5.40424 -16.54205,5.40265 -17.30184,4.17329 z m 81.1816,-62.58726 C 262.82931,289.82454 269,287.55269 274.5,285.5353 c 11.47587,-4.20933 11.07111,-3.82495 23.2037,-22.0353 16.89859,-25.36386 17.8938,-28.67945 15.41439,-51.35398 -1.73928,-15.90596 -0.52081,-14.17353 -18.00853,-25.60482 -21.25144,-13.89156 -19.18016,-13.04077 -24.84196,-10.20389 -2.62218,1.31386 -7.2426,2.93764 -10.2676,3.60839 -17.51244,3.88316 -21.06117,6.21516 -29.75679,19.5543 -2.50977,3.85 -6.88131,9.7 -9.71455,13 -13.11317,15.27351 -12.58948,13.93081 -12.25075,31.40966 0.38674,19.95661 -0.0104,19.19907 16.72209,31.89736 23.1588,17.57524 25.57685,18.57366 35.78735,14.77683 z M 154.63027,322.5 c 0.13027,-34 0.13027,-34 -3.1047,-39.5 C 139.42146,262.42094 140,264.64377 140,238.71728 c 0,-23.53651 0,-23.53651 7.5,-27.65275 7.39542,-4.05884 9.4854,-9.67912 7.58808,-20.40555 -0.0818,-0.46257 -0.43078,-8.00436 -0.77546,-16.75954 -0.71454,-18.14996 -0.70633,-18.1402 -23.81262,-28.31166 -6.05,-2.66324 -13.80291,-6.39336 -17.22869,-8.28916 -7.68198,-4.25116 -8.60638,-3.97627 -14.185066,4.21812 -5.375466,7.89589 -4.598543,7.88645 -19.197732,0.23326 C 66.669724,134.82044 65.314444,133.10577 59.535685,116 57.113524,108.83013 57.628291,109.18586 28.283394,94.403285 14.819578,87.620849 15.615474,86.140809 16.254143,116.77277 16.79055,142.5 16.79055,142.5 21.810895,158 c 5.020345,15.5 5.020345,15.5 5.104141,34.16973 0.09697,21.60384 0.131364,21.45281 -5.428858,23.83619 -4.225074,1.81108 -4.225074,1.81108 -4.742451,33.15258 -0.465712,28.21172 -0.353923,31.47293 1.119448,32.65765 C 23.146784,286.06463 48.097349,299 51.00848,299 c 1.455572,0 3.265239,-1.91595 6.139429,-6.5 4.840482,-7.72009 4.344376,-7.64137 13.268158,-2.1054 3.896163,2.41703 10.008933,5.7133 13.583933,7.32505 6.5,2.93045 6.5,2.93045 8.876546,10.3554 6.447575,20.14391 8.375524,22.06356 37.905934,37.74279 8.40537,4.46284 16.28037,8.81789 17.5,9.67789 6.22155,4.38698 6.20421,4.4771 6.34779,-32.99573 z m -22.29649,19.15841 C 105.4154,327.15349 103.20029,324.98813 97.390642,307.5 94.061653,297.47912 94.001835,297.40871 85.519379,293.52773 c -3.860658,-1.76638 -10.564616,-5.53272 -14.897684,-8.36966 -10.049684,-6.57971 -10.39361,-6.54707 -15.059528,1.42919 -5.38341,9.2028 -5.274172,9.21193 -24.521442,-2.04932 C 19.473596,277.77021 20.180755,279.29244 21.035218,263 c 0.389407,-7.425 0.475503,-18.94676 0.191324,-25.60391 -0.640959,-15.01507 -0.277342,-16.61434 4.140766,-18.21195 5.895809,-2.13195 5.910175,-2.19639 5.759939,-25.83796 -0.137453,-21.62994 -0.137453,-21.62994 -5.02763,-36.73806 C 21.209439,141.5 21.209439,141.5 20.473244,119.76907 19.608351,94.239288 19.403825,94.696505 29.37276,99.874179 55.291289,113.33577 53.16377,111.77131 56.06199,119.5 62.876124,137.67128 62.816609,137.60191 79,146.23575 c 17.51946,9.34663 15.837875,9.28492 21.69341,0.79601 5.74702,-8.33161 5.45139,-8.29612 17.91045,-2.14972 5.44288,2.68512 12.37114,5.91807 15.39614,7.18433 15.73089,6.58491 15.63956,6.41828 16.45611,30.02445 0.83016,23.99952 1.47071,21.72734 -7.45611,26.44879 -2.475,1.30905 -5.12238,2.79922 -5.88306,3.31149 -1.09829,0.73963 -1.45426,5.99789 -1.72882,25.53745 -0.37839,26.9278 -0.69883,25.65814 12.01645,47.61145 3.38673,5.84729 4.5337,65.15458 1.25542,64.91535 -0.63799,-0.0466 -7.98479,-3.76218 -16.32621,-8.25694 z M 98.834454,273.60836 c 3.116046,-2.4154 7.240546,-5.16778 9.165546,-6.11639 13.47789,-6.6417 14,-7.78954 14,-30.77852 0,-21.22175 0,-21.22175 -9.14188,-38.2176 -15.534653,-28.88077 -17.996602,-31.34404 -37.541216,-37.5614 -7.183095,-2.28502 -7.183095,-2.28502 -11.5,1.2224 -2.374297,1.92908 -8.514834,6.31839 -13.645638,9.75402 -13.872794,9.28934 -12.826584,7.13463 -11.94649,24.6042 1.460525,28.99092 2.343278,31.89228 16.928793,55.64017 9.000976,14.65523 9.000976,14.65523 17.673704,17.81541 4.77,1.73809 10.697727,4.2354 13.172727,5.54957 6.012588,3.19256 6.305702,3.14889 12.834454,-1.91186 z M 171.69279,141.588 c 3.74397,-1.32659 16.25721,-5.39462 27.80721,-9.04007 11.55,-3.64544 23.925,-7.71378 27.5,-9.04077 3.575,-1.32698 7.85,-2.69775 9.5,-3.04616 1.65,-0.34841 6.825,-1.98364 11.5,-3.63384 4.675,-1.65021 13.225,-4.28383 19,-5.85249 5.775,-1.56866 14.1,-4.21748 18.5,-5.88627 16.58184,-6.288985 27.3526,-9.950267 38.5,-13.087227 6.325,-1.779901 14.59216,-4.118642 18.37148,-5.197201 3.84947,-1.098581 6.48821,-2.338354 6,-2.81901 C 346.5385,82.180352 311.07899,64.978817 303.21392,62.078876 298.67363,60.404818 292.39529,57.395243 289.26204,55.390931 286.1288,53.38662 280.85056,50.7243 277.53262,49.474666 274.21468,48.225031 262.95,42.704844 252.5,37.207584 242.05,31.710323 227.65,24.84764 220.5,21.957178 c -7.15,-2.890463 -15.32525,-6.560225 -18.16723,-8.155027 -5.16723,-2.89964 -5.16723,-2.89964 -20,2.021441 -16.06585,5.330182 -14.53313,6.727264 6.73001,6.134433 32.21078,-0.89806 56.11569,12.520622 51.14686,28.710561 -2.60539,8.489145 4.1815,11.722756 24.79036,11.811354 14.5,0.06233 14.5,0.06233 34.42423,9.563902 C 317.57246,80.698458 322.87019,84 318.60936,84 c -0.85651,0 -5.05651,1.40419 -9.33333,3.120421 -29.88889,11.994026 -40.07899,13.373479 -56.859,7.697094 -9.23536,-3.124159 -9.23536,-3.124159 -19.0762,0.547039 -5.41245,2.019159 -14.7887,5.350656 -20.83611,7.403326 -12.61291,4.28119 -13.13946,4.99576 -8.57251,11.63358 4.85683,7.05917 4.26842,7.55738 -14.93221,12.64331 -5.775,1.5297 -12.67481,3.72041 -15.33291,4.86825 -6.22725,2.6891 -6.29799,2.68198 -12.18044,-1.22523 -2.74266,-1.82171 -6.56165,-3.89446 -8.48665,-4.60612 -5.91711,-2.1875 -27.98623,-13.53241 -27.99332,-14.39031 -0.004,-0.44475 1.40025,-2.55937 3.11982,-4.69915 3.96809,-4.93776 3.45301,-6.14772 -4.33072,-10.173024 C 107.40951,88.345133 106.11299,88 90.665853,88 76.52963,88 76.52963,88 61.285592,80.279223 52.778401,75.970513 46.421582,72.178418 46.901474,71.698526 50.430243,68.169757 87.821486,56.821347 94,57.403912 c 23.95907,2.259075 24.6663,2.108977 22.08257,-4.686724 -1.42046,-3.736099 0.42311,-9.164271 4.73247,-13.934224 4.3876,-4.856548 5.44321,-5.048794 -16.31504,2.971257 -8.25,3.040934 -20.860129,7.204051 -28.022509,9.251369 -7.162381,2.047319 -16.162381,5.098022 -20,6.779341 C 52.639871,59.466249 42.75,62.71975 34.5,65.014934 17.030435,69.875037 16.653953,70.100574 21.686112,72.691277 23.78375,73.771202 36.075,80.147033 49,86.85979 c 12.925,6.712757 27.1,13.61952 31.5,15.34837 4.4,1.72884 9.125,3.90411 10.5,4.83392 1.375,0.92982 7,3.80047 12.5,6.37923 5.5,2.57876 10.9,5.22426 12,5.87889 1.70131,1.01248 48.64194,24.54257 49.19279,24.65904 0.10603,0.0224 3.25603,-1.04464 7,-2.37124 z m 29.36478,-52.040559 c 15.57556,-2.347959 27.80988,-7.635243 31.24183,-13.501729 2.60823,-4.458425 3.41731,-31.021343 1.06647,-35.013056 -13.3442,-22.658394 -101.41337,-18.060125 -111.30122,5.811262 -1.86104,4.492955 0.0657,28.537649 2.50254,31.230327 9.41682,10.405472 46.58766,15.980922 76.49038,11.473196 z"
       id="path823"
       inkscape:connector-curvature="0" />
    <path
       style="fill:#2b5c56"
       d="m 157,380.39513 c -3.025,-1.95452 -9.54635,-5.57261 -14.49188,-8.04021 -4.94554,-2.46759 -10.34784,-5.52076 -12.00511,-6.78483 -1.65727,-1.26406 -6.38592,-3.99552 -10.50812,-6.06991 -4.12219,-2.07439 -9.98823,-5.46337 -13.03566,-7.53107 -3.04742,-2.0677 -8.450598,-5.07884 -12.007065,-6.69142 -3.556468,-1.61258 -8.762397,-4.58154 -11.568731,-6.59769 -2.806335,-2.01615 -8.432028,-5.18307 -12.50154,-7.03761 -4.069512,-1.85454 -10.320239,-5.40356 -13.890503,-7.88672 C 49.43403,318.49944 24.564109,304.28287 11.326587,297.65197 6.2812095,295.12466 1.8607521,292.58371 1.503348,292.00542 1.1459439,291.42713 0.99897982,266.55183 1.1767612,236.72699 1.3545425,206.90214 1.2951692,177.325 1.0448205,171 0.48139534,156.7652 0.49308757,115.38653 1.0683314,87.795186 1.5870896,62.913156 -0.18474976,64.697659 33.555657,55.075656 c 7.730611,-2.204596 16.612061,-5.178717 19.736555,-6.609158 3.124494,-1.430441 11.649448,-4.31288 18.944343,-6.405421 7.294895,-2.09254 22.147337,-7.043815 33.005425,-11.002832 10.85809,-3.959017 23.71333,-8.261015 28.5672,-9.559996 4.85387,-1.298982 11.29775,-3.455251 14.31972,-4.791711 3.02197,-1.336459 11.31673,-4.118817 18.4328,-6.183016 7.11606,-2.0642 17.11603,-5.3417281 22.22215,-7.283396 10.20839,-3.8818699 9.28571,-3.96966878 18.49191,1.7596183 2.62667,1.6346516 10.84066,5.4569967 18.25333,8.4940997 7.41266,3.037103 21.91357,9.937695 32.22424,15.33465 C 268.064,34.225449 279.2,39.71059 282.5,41.017697 c 3.3,1.307107 8.366,3.878916 11.25777,5.715132 2.89178,1.836216 9.19603,4.841468 14.00944,6.678337 12.10336,4.618814 54.29027,25.867231 56.72637,28.57155 1.95972,2.175479 1.98659,3.396523 1.58158,71.865184 -0.22661,38.30865 -0.22502,84.7271 0.004,103.1521 0.72591,58.52004 0.6151,59.46622 -7.30739,62.40004 -5.92479,2.19404 -37.97603,12.97696 -51.2713,17.24908 -6.05,1.94402 -16.45074,5.498 -23.11275,7.89772 -6.66201,2.39972 -17.23701,5.9268 -23.5,7.83796 -6.26299,1.91116 -26.68725,8.62087 -45.38725,14.91047 -57.07762,19.19761 -51.12543,17.86474 -58.5,13.09986 z m 27.14468,-19.79761 c 7.34208,-2.76355 30.91884,-10.45111 41.66962,-13.587 7.18323,-2.09528 7.38357,-2.24439 11.18067,-8.32201 12.08077,-19.33639 11.68592,-18.98702 27.45277,-24.29086 14.28357,-4.80488 14.28357,-4.80488 21.66792,1.93958 9.38735,8.5739 9.28743,8.55804 22.92304,3.63814 6.30372,-2.27446 15.62584,-5.20869 20.71583,-6.52053 19.82821,-5.11028 20.64255,-5.96102 21.49397,-22.45484 0.41167,-7.975 0.63667,-22.825 0.5,-33 -0.2485,-18.5 -0.2485,-18.5 -7.8488,-21.45394 -7.6003,-2.95395 -7.6003,-2.95395 -8.24694,-20 -1.26662,-33.3891 -1.50581,-31.67298 5.09724,-36.57111 12.06294,-8.94828 10.92885,-4.45819 10.54141,-41.73561 -0.18715,-18.00664 -0.32928,-33.74327 -0.31584,-34.97029 0.0403,-3.67942 -3.84274,-3.802238 -14.18116,-0.44854 -5.11192,1.65827 -11.76941,3.56183 -14.79441,4.23014 -3.025,0.66831 -9.55,2.90418 -14.5,4.96859 -4.95,2.06441 -12.29822,4.53684 -16.32937,5.49429 -8.91665,2.11781 -7.68831,0.71558 -16.99401,19.39969 -8.72246,17.51306 -6.61987,15.83964 -27.17662,21.62959 -5.225,1.47166 -10.24438,2.89277 -11.15418,3.15804 -1.16734,0.34035 -2.47714,-0.94262 -4.45043,-4.35928 -9.99025,-17.29763 -9.81218,-17.23656 -30.25193,-10.37543 -6.4039,2.14963 -15.19016,4.80585 -19.52501,5.9027 -10.23768,2.59043 -10.12542,2.43531 -10.08074,13.93002 0.16196,41.66931 1.18747,45.39563 14.57165,52.94798 5.26533,2.9711 6.43892,11.30167 5.17011,36.69922 C 190.67727,268.5 190.67727,268.5 181.25872,279 c -9.41856,10.5 -9.41856,10.5 -8.89138,19.5 0.28994,4.95 0.14299,12.6 -0.32656,17 -0.46956,4.4 -0.60037,16.25081 -0.2907,26.33514 0.71181,23.17947 0.70139,23.16369 12.3946,18.76238 z M 179.63619,341.25 c -0.35593,-6.4625 -0.41968,-19.6757 -0.14167,-29.36266 0.27802,-9.68697 0.50548,-18.13801 0.50548,-18.7801 0,-0.64208 3.9375,-5.52706 8.75,-10.85551 10.20276,-11.2966 10.02778,-10.52384 10.17048,-44.91566 C 199,218.17213 199,218.17213 192.75,214.65105 179.63075,207.26003 180.17368,208.56557 179.81486,183.54705 179.5,161.59411 179.5,161.59411 183,160.64801 c 1.925,-0.52035 7.55,-2.25567 12.5,-3.85625 24.5183,-7.92799 22.13157,-8.45163 30.48954,6.68929 4.76488,8.63184 4.21075,8.477 16.34806,4.56826 5.03932,-1.62288 13.15075,-4.12827 18.02539,-5.56753 11.19192,-3.30448 11.83931,-3.98882 20.53718,-21.70936 7.15127,-14.56959 7.15127,-14.56959 14.36683,-16.33785 3.96856,-0.97255 10.36949,-3.19841 14.22428,-4.94637 3.8548,-1.74795 10.38372,-3.99254 14.50872,-4.98797 4.125,-0.99543 9.94749,-2.6452 12.93888,-3.66617 7.29447,-2.48962 6.91058,-3.9994 7.1447,28.09869 0.20739,28.43275 0.20739,28.43275 -7.9381,34.80993 C 328,180.11986 328,180.11986 328,207.94915 c 0,31.85564 -0.36475,30.47359 8.9975,34.09203 8.59736,3.32282 8.03548,0.98723 7.40716,30.78912 -0.67116,31.834 0.59279,29.14531 -15.40466,32.76881 -3.575,0.80975 -11.31701,3.25622 -17.20448,5.43659 -14.58748,5.40234 -14.77159,5.37811 -23.06948,-3.0357 -3.79696,-3.85 -7.28989,-7 -7.76208,-7 -0.78766,0 -30.26367,9.91148 -34.15173,11.48372 -1.9899,0.80467 -10.03482,11.62987 -14.63824,19.69715 -2.83035,4.96005 -3.84009,5.8712 -7.95783,7.18082 -2.59389,0.82497 -13.18896,4.23107 -23.54461,7.56912 C 190.3159,350.26887 181.49215,353 181.06321,353 c -0.42893,0 -1.0711,-5.2875 -1.42702,-11.75 z m 89.03245,-53.16492 c 3.75725,-1.59228 8.71759,-3.39808 11.02297,-4.01289 5.16294,-1.37687 8.45083,-5.0685 19.80019,-22.23154 15.60055,-23.59192 17.2064,-30.18071 13.50955,-55.42969 -1.5055,-10.28237 0.21111,-8.40284 -19.45024,-21.29628 -18.86722,-12.37267 -17.83051,-11.99854 -24.33435,-8.78185 -2.59422,1.28305 -7.41676,2.89597 -10.71676,3.58426 -15.95017,3.32677 -20.49339,6.5313 -29.9519,21.12641 -2.33232,3.59892 -6.22228,8.77947 -8.64434,11.51232 -11.78045,13.29205 -11.90439,13.60015 -11.89818,29.57816 0.009,21.9786 0.24888,22.37776 23.49442,39.01852 20.03683,14.34375 19.78957,14.29763 37.16864,6.93258 z M 154.89452,356.62709 C 158.02248,352.85814 155.94431,288.89402 152.50241,283 140.31229,262.12525 140.93526,264.56294 141.23134,238.8964 141.5,215.60661 141.5,215.60661 148,211.85768 c 8.76007,-5.05245 8.35245,-3.41371 7.51507,-30.21225 -0.84959,-27.1894 -0.11924,-26.07057 -23.86547,-36.55931 -6.51773,-2.87889 -14.6551,-6.77599 -18.08305,-8.66023 C 105.24817,131.85353 104.93887,131.92979 99.069094,140 92.932498,148.43705 94.124329,148.39116 80,140.73425 67.234587,133.81401 66.109967,132.41344 60.942045,117 57.940795,108.04871 58.921819,108.7571 28.152232,93.322566 14.702727,86.576071 15.47117,85.146126 15.633496,116.61786 15.766992,142.5 15.766992,142.5 20.883496,157.93219 28.537095,181.01665 28.733075,211.65571 21.25,215.23071 16.5,217.5 16.5,217.5 15.890609,249 c -0.349443,18.06304 -0.227611,31.98858 0.285609,32.64537 1.021552,1.30732 20.883287,12.63687 28.173079,16.07051 7.696713,3.62531 8.90091,3.24256 13.263916,-4.21588 4.417392,-7.55142 4.189707,-7.48255 10.745972,-3.25 2.768854,1.7875 8.656403,5.05 13.083443,7.25 8.049163,4 8.049163,4 11.119693,12.5 7.046549,19.50662 8.426049,20.90776 33.937679,34.47013 8.8,4.67821 17.8,9.6222 20,10.98664 4.56251,2.82968 6.7628,3.13643 8.39452,1.17032 z M 133.88871,341.6573 C 105.58155,326.77238 104.07772,325.24782 96.743607,304 94.5,297.5 94.5,297.5 84.898913,292.5 c -5.280598,-2.75 -12.511971,-6.9125 -16.069718,-9.25 -8.463684,-5.56078 -8.870889,-5.4794 -13.759887,2.75 -5.154231,8.67586 -4.63263,8.68535 -20.584642,-0.37486 C 21.5,278.25028 21.5,278.25028 21.541667,273.62514 c 0.02292,-2.54383 0.135416,-15.35688 0.25,-28.47345 C 22,221.30338 22,221.30338 25.993141,219.73483 31.646175,217.51425 32.004138,215.83028 31.845116,192.2053 31.705746,171.5 31.705746,171.5 26.74455,156.5 c -4.961197,-15 -4.961197,-15 -5.495044,-36.60312 -0.611978,-24.764808 -0.915632,-24.009647 7.829474,-19.47122 24.229081,12.57411 23.969085,12.3749 26.851198,20.57434 5.73536,16.31677 6.792036,17.5199 22.569822,25.69801 17.095234,8.86099 17.093911,8.86089 22.06696,1.64024 6.28779,-9.12959 4.86439,-8.96842 19.19291,-2.17328 32.95304,15.6276 28.9385,10.71796 29.79824,36.44224 0.70544,21.10722 0.70544,21.10722 -6.92633,25.32005 C 135,212.14009 135,212.14009 135,237.59856 c 0,28.52945 -0.66266,25.66431 10.5006,45.40144 4.24197,7.5 4.24197,7.5 4.39063,36.75 0.1174,23.09912 -0.1184,29.23051 -1.12129,29.1573 -0.69847,-0.051 -7.39502,-3.31349 -14.88123,-7.25 z M 96.951165,275.5408 c 2.277216,-1.90256 7.607295,-5.53222 11.844615,-8.06591 14.60322,-8.73193 13.40822,-5.99888 13.45478,-30.77204 0.0405,-21.55454 0.0405,-21.55454 -9.21995,-38.8787 -14.292598,-26.73809 -16.835577,-29.45843 -33.55679,-35.89719 -8.956486,-3.44883 -12.498791,-3.66184 -14.996619,-0.90177 -1.008026,1.11386 -5.69027,4.54775 -10.404988,7.63088 -17.776327,11.6246 -17.173083,10.70702 -16.547929,25.17051 1.312401,30.36356 2.670193,34.99181 17.115325,58.34039 9.839112,15.90358 8.274271,14.4294 20.360391,19.18088 5.225,2.05413 11.075,4.59733 13,5.65155 4.539497,2.48605 4.154675,2.54875 8.951165,-1.4586 z M 198,134.39111 c 17.875,-5.82701 36.92406,-11.90802 42.33125,-13.51336 5.40718,-1.60534 11.46166,-3.60004 13.4544,-4.43266 1.99274,-0.83261 8.10477,-2.64988 13.5823,-4.03836 5.47752,-1.38848 11.17764,-3.15463 12.66693,-3.92477 4.11082,-2.12579 42.99997,-15.006031 55.46512,-18.370272 13.99453,-3.777006 17.06542,-4.950711 15.91284,-6.081944 C 349.54295,82.194479 310.22206,63.114955 303,60.538565 c -4.125,-1.471547 -10.2,-4.371788 -13.5,-6.444978 -3.3,-2.07319 -8.25,-4.600763 -11,-5.616828 -2.75,-1.016065 -13.775,-6.449251 -24.5,-12.073748 -10.725,-5.624496 -24.225,-12.095884 -30,-14.38086 -5.775,-2.284977 -14.20689,-6.013381 -18.73754,-8.285343 -8.23755,-4.1308405 -8.23755,-4.1308405 -25,1.18979 -9.21935,2.926346 -18.89467,5.97441 -21.5007,6.773476 -4.95473,1.519227 -8.04529,4.066646 -3.66091,3.017532 12.13518,-2.903759 37.49931,-2.95492 53.11268,-0.107131 23.13253,4.21924 31.06868,10.727567 30.95957,25.389525 -0.034,4.563724 0.51751,7.54261 1.85124,10 6.81345,12.553725 7.32283,15.585666 3.83047,22.799925 -10.51845,21.728205 -86.81634,28.643225 -122.64976,11.115972 -15.52725,-7.594865 -18.64092,-18.215478 -8.51623,-29.04854 2.03641,-2.178893 2.59537,-4.112444 3.24305,-11.218402 0.91552,-10.044623 2.97115,-13.510193 11.36776,-19.164798 7.68059,-5.17241 4.08356,-4.386306 -20.10062,4.392849 C 96.264554,43.209359 81.325,48.20499 75,49.978409 c -6.325,1.773419 -14.875,4.688995 -19,6.479059 -4.125,1.790064 -14.340988,5.166594 -22.702196,7.5034 -19.39519,5.420603 -20.254324,5.998011 -13.733412,9.229986 2.714585,1.345435 15.420586,7.895263 28.235558,14.555173 12.814973,6.659909 26.539973,13.473423 30.5,15.141143 3.960028,1.66772 24.52505,11.77169 45.70005,22.45327 21.175,10.68158 39.175,19.4715 40,19.53315 0.825,0.0616 16.125,-4.65546 34,-10.48248 z m 3.05757,-44.843669 c 22.75551,-3.43031 32.93288,-10.133261 32.95063,-21.701733 0.005,-2.940139 0.46057,-9.293853 1.01345,-14.119365 1.12026,-9.777542 0.50574,-11.998132 -4.68237,-16.919807 -19.86202,-18.84199 -99.36523,-11.471804 -108.27463,10.037382 -1.86104,4.492955 0.0657,28.537649 2.50254,31.230327 9.41682,10.405472 46.58766,15.980922 76.49038,11.473196 z"
       id="path821"
       inkscape:connector-curvature="0" />
    <path
       style="fill:#092121"
       d="m 159.40554,381.48415 c -1.59805,-1.38371 -7.18054,-4.6205 -12.40554,-7.19286 -5.225,-2.57235 -11.975,-6.32915 -15,-8.34843 -3.025,-2.01928 -8.875,-5.36857 -13,-7.44286 -4.125,-2.07429 -9.975,-5.43713 -13,-7.47298 -3.025,-2.03585 -8.050766,-4.85806 -11.168369,-6.27159 -3.117603,-1.41352 -8.414014,-4.43457 -11.769802,-6.71344 -3.355787,-2.27887 -9.095581,-5.48679 -12.755097,-7.1287 -3.659516,-1.64192 -9.388105,-4.91933 -12.730199,-7.28315 C 51.01648,318.99031 25.229715,304.23324 10.22401,296.53157 0.94802052,291.77068 0.94802052,291.77068 1.4980848,236.13534 2.1779327,167.37326 2.1970681,173.79298 1.2160033,141.5 0.76485841,126.65 0.76931917,110 1.2259161,104.5 3.0607494,82.398269 3.2577183,75.857718 2.1226618,74.722662 -3.8651042,68.734896 3.2385169,64.299744 32.174837,55.959561 40.053677,53.688679 49.425,50.554074 53,48.993772 56.575,47.43347 65.8,44.33071 73.5,42.098749 c 7.7,-2.231961 20.643154,-6.545911 28.76257,-9.586555 8.11941,-3.040644 20.26941,-7.140072 27,-9.10984 6.73058,-1.969767 14.83419,-4.695501 18.00801,-6.057186 3.17382,-1.361685 11.04882,-3.995068 17.5,-5.851961 13.78272,-3.9671858 24.44437,-7.6338224 28.97225,-9.9638147 3.08034,-1.5851084 7.03104,-1.35019684 8.25717,0.4909779 1.18385,1.7776824 11.43674,6.9752252 23.5,11.9129598 7.15,2.926637 21.1,9.5776 31,14.779917 9.9,5.202317 21.32084,10.78858 25.37965,12.413918 4.05881,1.625339 9.32383,4.29279 11.70005,5.927671 2.37622,1.63488 8.28462,4.485315 13.12979,6.3343 11.36566,4.337301 55.22813,26.238941 57.62989,28.776062 2.24127,2.36759 2.70861,132.502442 0.51178,142.510312 -0.8509,3.87636 -0.84536,8.54881 0.0221,18.6139 0.80113,9.29572 0.85291,15.59062 0.16798,20.42005 -0.64539,4.55059 -0.65084,8.16487 -0.0157,10.37963 0.53599,1.86888 0.99878,10.60088 1.02842,19.40444 0.0807,23.96812 0.36125,23.57414 -21.61304,30.35182 -7.11751,2.1953 -17.17113,5.61428 -22.34138,7.59773 -5.17025,1.98346 -15.07025,5.35789 -22,7.49876 -6.92975,2.14086 -18.44955,5.90439 -25.59955,8.36341 -7.15,2.45902 -33.25,11.12302 -58,19.25334 -24.75,8.13032 -46.41801,15.38068 -48.15113,16.1119 -4.39119,1.85271 -5.62213,1.68943 -8.94333,-1.18634 z M 210.5,360.60896 c 22,-7.37087 46.3,-15.44121 54,-17.93407 20.78511,-6.72916 34.38156,-11.31708 50,-16.87175 7.7,-2.73849 19.13533,-6.5406 25.41185,-8.44913 13.93081,-4.23599 16.73364,-5.6266 17.27136,-8.5691 1.79827,-9.84043 0.18971,-219.276661 -1.68321,-219.15509 -4.34986,0.282351 -48.02974,13.55083 -56.73948,17.23555 -14.50679,6.1372 -43.35045,15.4918 -57.68378,18.70805 -4.0828,0.91614 -10.31421,2.96278 -13.84758,4.5481 -3.53337,1.58531 -13.0179,4.9426 -21.07673,7.46064 -32.51709,10.1602 -39.05011,12.52009 -39.6186,14.31124 -0.44868,1.41369 -0.89555,53.37808 -0.69317,80.6066 0.0245,3.3 0.0672,36.07525 0.0948,72.83388 0.0276,36.75864 0.30499,67.24614 0.61639,67.75 1.0729,1.73599 4.08158,0.88196 43.94816,-12.47492 z m -30.00546,-24.8946 c -0.39826,-9.02864 -0.39697,-17.44642 0.003,-18.70617 0.39983,-1.25976 0.69721,-7.28946 0.66084,-13.39933 -0.0661,-11.10886 -0.0661,-11.10886 8.44244,-20.43743 10.98596,-12.04472 10.54567,-10.39311 10.52969,-39.49864 -0.015,-27.33227 0.17344,-26.47474 -6.56347,-29.86646 -11.2044,-5.64089 -12.32848,-7.51897 -12.59032,-21.03548 -0.64203,-33.14342 -1.02834,-30.11437 4.02342,-31.54706 2.475,-0.70192 9.94568,-3.06442 16.6015,-5.25 16.70303,-5.4848 16.17563,-5.71278 24.92925,10.77621 3.3217,6.25699 5.0521,6.58508 14.70873,2.78885 3.44329,-1.35363 9.18552,-3.13362 12.76052,-3.95552 16.97414,-3.90241 17.57735,-4.40143 26.64035,-22.03906 8.87162,-17.26519 8.47008,-16.80898 16.23457,-18.44454 2.95621,-0.62271 8.80621,-2.63799 13,-4.47839 6.24368,-2.73998 17.73663,-6.22401 30.62508,-9.28384 1.96149,-0.46567 2.00251,0.0662 2.13056,27.62245 0.13056,28.09726 0.13056,28.09726 -7.64475,34.11219 -9.57977,7.41083 -9.05476,5.08689 -8.34245,36.92786 0.68293,30.52805 0.37735,29.49199 9.72309,32.96542 3.64845,1.35598 6.65471,2.93098 6.68057,3.5 0.48602,10.69506 -0.3884,52.241 -1.11804,53.12015 -0.5385,0.64886 -4.23032,2.15424 -8.20404,3.34529 -3.97372,1.19105 -13.29994,4.16999 -20.72494,6.61988 -16.86336,5.56408 -15.12707,5.76631 -23.71255,-2.76187 -8.46477,-8.40828 -5.80242,-8.42507 -30.3594,0.19153 -16.06928,5.63843 -15.89144,5.48118 -27.90227,24.67085 -3.10655,4.96333 -4.49467,6.28864 -7.18793,6.86269 -2.70194,0.5759 -37.18525,11.53093 -41.46231,13.17219 -0.82957,0.31834 -1.36177,-4.20066 -1.881,-15.97177 z m 86.35167,-46.1479 c 4.75959,-1.89498 10.60131,-4.00438 12.98162,-4.68754 5.52658,-1.58618 9.93825,-6.70402 22.1209,-25.66177 13.95379,-21.71384 15.0762,-26.39899 12.03046,-50.21715 -1.71662,-13.42417 -0.30726,-11.69804 -20.0317,-24.53417 -17.92192,-11.66311 -17.92192,-11.66311 -25.18471,-8.68373 -3.99453,1.63866 -9.06278,3.27502 -11.26278,3.63635 -14.02838,2.30405 -19.83199,6.47312 -29.34691,21.08155 -2.50762,3.85 -6.43747,9.025 -8.733,11.5 -11.20119,12.07691 -12.42262,14.97547 -12.39564,29.41578 0.0409,21.8722 0.57751,22.90262 19.04763,36.57305 24.53275,18.15762 24.36616,18.11031 40.77413,11.57763 z m -106.14645,33.85035 c 0.27675,-65.00061 0.2791,-77.62102 0.024,-128.7831 -0.22373,-44.86629 -0.22373,-44.86629 -5.1126,-46.78784 -2.68888,-1.05686 -7.86417,-3.68915 -11.50066,-5.84955 -3.63649,-2.1604 -11.09612,-5.75261 -16.57696,-7.98269 -5.48084,-2.23008 -14.4937,-6.73489 -20.02856,-10.0107 -5.5349,-3.27581 -19.275274,-10.18424 -30.534202,-15.35208 C 65.71185,103.48301 54.25,97.925904 51.5,96.301717 40.130584,89.586786 12.015603,75.651064 11.293875,76.372792 c -0.427943,0.427942 -0.86651,48.001598 -0.974594,105.719228 -0.196517,104.94116 -0.196517,104.94116 5.992101,108.05268 10.973839,5.51744 37.997621,21.02656 44.680009,25.64214 3.570264,2.46602 9.718214,5.95418 13.662111,7.75147 3.943896,1.79729 9.94403,5.15112 13.33363,7.45295 3.3896,2.30184 8.650988,5.2855 11.691973,6.63037 3.040985,1.34487 8.069725,4.1691 11.174975,6.27607 3.10526,2.10698 9.02092,5.51602 13.14592,7.57566 4.125,2.05964 9.07178,4.92696 10.99284,6.37183 4.27413,3.21466 23.12376,12.97815 24.50716,12.6939 0.6461,-0.13275 1.07069,-16.80943 1.19976,-47.12228 z M 132,339.65229 c -27.18593,-14.33168 -26.02904,-13.0658 -35.3475,-38.67796 -1.546443,-4.25046 -2.178852,-4.78743 -10.399537,-8.8301 -4.814129,-2.36743 -12.212506,-6.55676 -16.440837,-9.30961 -9.422382,-6.13445 -10.185174,-6.01347 -15.245459,2.41787 -2.227329,3.71113 -4.728509,6.74575 -5.558178,6.74361 -1.254827,-0.003 -21.980821,-11.08643 -25.617933,-13.69914 -0.787169,-0.56546 -0.968872,-8.88369 -0.625518,-28.63586 0.483925,-27.83889 0.483925,-27.83889 4.772031,-29.67699 5.269385,-2.25872 5.678409,-4.80281 5.142218,-31.98411 -0.345213,-17.5 -0.345213,-17.5 -5.155012,-32 -4.809798,-14.5 -4.809798,-14.5 -5.299153,-35.75 -0.571451,-24.815012 -1.14372,-23.86118 10.290748,-17.15215 3.841272,2.25382 9.979817,5.61342 13.641211,7.46578 6.631095,3.35478 6.665798,3.39441 8.889877,10.15215 5.647226,17.15878 6.334099,17.93559 24.038287,27.18597 16.871054,8.81507 16.417569,8.81344 22.788235,0.082 5.11922,-7.01624 5.11922,-7.01624 11.20541,-3.94394 3.34741,1.68977 10.21155,4.87495 15.25365,7.07817 18.40761,8.04349 19.65939,9.17606 19.72138,17.8433 0.0297,4.14629 0.40643,10.91371 0.83728,15.03871 1.70582,16.33176 0.85629,19.0966 -7.24799,23.58899 -7.14321,3.95965 -7.14321,3.95965 -7.41008,29.6768 -0.29705,28.62667 -0.70892,26.82824 10.53017,45.98073 3.959,6.74653 3.959,6.74653 4.10746,35.75 0.0817,15.95192 -0.19336,28.96376 -0.61115,28.91521 C 147.84183,347.86319 140.525,344.14644 132,339.65229 Z M 98.820594,275.12955 C 101.39427,273.0008 105.75,269.9826 108.5,268.42242 123.61707,259.84596 123.13275,260.94406 122.80008,236 122.5,213.5 122.5,213.5 113.1637,196.40296 98.623414,169.77614 94.862738,166.10374 75.683937,159.80303 67.928289,157.2551 69.61671,156.71117 56.447795,166 34.87935,181.21352 36.460989,179.03595 36.826048,193.01488 37.596666,222.52363 39.425131,228.80164 54.296673,253 c 9.186379,14.9477 8.511048,14.27538 18.006255,17.92582 4.50839,1.73326 10.222072,4.23867 12.697072,5.56759 6.199646,3.32882 8.410934,3.1106 13.820594,-1.36386 z M 198,135.39111 c 17.875,-5.82701 36.81152,-11.8754 42.08116,-13.44088 5.26964,-1.56547 11.84134,-3.73719 14.60379,-4.82605 2.76245,-1.08885 8.92457,-2.90644 13.69362,-4.03909 4.76904,-1.13264 9.89733,-2.69061 11.39621,-3.46214 4.13796,-2.13 37.09294,-13.221834 49.63457,-16.70579 C 347.11584,87.998454 353,85.923208 353,84.597131 c 0,-1.497096 -39.55274,-21.359421 -49.72778,-24.97196 -3.97528,-1.41138 -10.05028,-4.321519 -13.5,-6.466977 C 286.3225,51.012736 281.25,48.433641 278.5,47.426871 275.75,46.4201 264.725,41.006651 254,35.396983 243.275,29.787316 228.67365,22.839065 221.55255,19.956426 c -7.1211,-2.882639 -15.1284,-6.527096 -17.79401,-8.098794 -6.172,-3.639146 -5.77892,-3.6672352 -21.75736,1.554764 -7.42565,2.426818 -16.65118,5.346732 -20.50118,6.488699 -16.22088,4.811353 -20.36467,8.97016 -5.5,5.519939 11.84072,-2.748335 37.67104,-2.983686 51,-0.464682 23.97307,4.530604 31.03037,10.587924 31.45695,26.999678 0.19817,7.624435 0.55496,9.104853 3.13334,13.001049 C 255.89526,86.573346 222.01036,103.93887 170,101.64608 133.27157,100.02696 109.98568,90.500662 110.00526,77.102117 c 0.005,-3.367584 0.79544,-5.069162 5.26401,-11.330705 1.1691,-1.638197 2.05721,-5.59971 2.61812,-11.678418 1.07725,-11.674362 3.26051,-14.700921 15.16766,-21.026251 15.29723,-8.126209 4.60276,-5.94824 -26.54892,5.406789 C 95.502759,42.484347 81.325,47.214222 75,48.984365 68.675,50.754508 60.125,53.669929 56,55.463078 51.875,57.256228 42.428569,60.407826 35.00793,62.466629 12.449031,68.725436 10.563194,69.982591 18.25,73.637966 c 2.3375,1.111573 15.275,7.761577 28.75,14.777789 13.475,7.016211 27.65,14.047785 31.5,15.625715 3.85,1.57794 24.325,11.6177 45.5,22.31058 21.175,10.69288 39.175,19.48481 40,19.53762 0.825,0.0528 16.125,-4.67154 34,-10.49856 z m 4.61901,-44.896253 c 26.82822,-4.546825 31.86451,-9.27187 32.81613,-30.788054 0.81309,-18.383998 0.33031,-19.954553 -7.82228,-25.446993 -25.1501,-16.943738 -97.4918,-8.547159 -106.21403,12.328085 -1.26364,3.024303 -1.16421,18.117148 0.17819,27.050029 2.07802,13.827966 45.55488,22.87126 81.04199,16.856933 z"
       id="path819"
       inkscape:connector-curvature="0" />
  </g>
  <path
     style="fill:#092121;stroke:none"
     d="m 203.64675,184.38016 3.45164,131.73759 113.32884,-31.64003 -1.72582,-132.31286 -112.17829,32.79058"
     id="path2022"
     inkscape:connector-curvature="0" />
  <path
     style="fill:#092121;stroke:none"
     d="m 34.169491,142.77966 4.881356,120.00001 87.457623,33.35592 -0.40678,-122.0339 z"
     id="path2045"
     inkscape:connector-curvature="0"
     sodipodi:nodetypes="ccccc" />
  <path
     style="fill:#71fab6;stroke:#649796;stroke-width:2"
     d="m 286.91797,155.16016 v 0 l -19.0957,23.17578 c -31.01082,37.63305 -33.61951,41.53751 -36.875,55.20703 -1.35642,5.6955 -6.93288,37.48522 -9.44922,53.87305 -0.21565,1.40441 0.38033,3.53906 1.32422,4.74414 2.09488,2.67458 11.17201,7.05944 16.45898,7.95117 4.64451,0.78335 5.0559,0.45549 19.53906,-15.62305 21.78936,-24.18958 27.95625,-33.01571 32.14063,-45.99609 1.29529,-4.01815 5.14293,-22.3382 8.55078,-40.71289 3.70631,-19.98402 6.0078,-30.75746 7.70312,-35.94922 z"
     id="path2032-4-6"
     inkscape:connector-curvature="0"
     sodipodi:nodetypes="cccscccscscc" />
  <path
     style="fill:#71fab6;stroke:#649796;stroke-width:2"
     d="m 40.318463,157.14535 v 0 l 5.823021,29.45938 c 9.45355,47.83877 10.820171,52.33126 19.329977,63.51326 3.54567,4.65906 24.600131,29.12113 35.680999,41.45431 0.94961,1.05694 2.97847,1.94893 4.50883,1.98264 3.39651,0.0748 12.54135,-4.16703 16.58204,-7.69123 3.54967,-3.09597 3.55682,-3.62197 0.29992,-25.01529 -4.8999,-32.18545 -7.81813,-42.54957 -15.20615,-54.01327 C 105.05009,203.2865 93.318478,188.69891 81.265853,174.41686 68.157607,158.88394 61.28322,150.27541 58.341985,145.6735 Z"
     id="path2032-4-6-3"
     inkscape:connector-curvature="0"
     sodipodi:nodetypes="cccscccscscc" />
</svg>
